<svg width="560" height="800" viewBox="0 0 560 800" fill="none" xmlns="http://www.w3.org/2000/svg">
<g clip-path="url(#clip0_129_1674)">
<rect width="560" height="800" fill="#E9C046"/>
<path d="M-61.9549 689.287C-61.9549 689.287 -30.0609 610.088 11.806 628.592C53.6729 647.096 35.4626 729.141 82.7939 747.579C140.547 770.076 187.578 640.861 240.795 673.143C300.935 709.623 63.3914 851.121 232.314 885.453" stroke="#030504" stroke-width="4"/>
<g clip-path="url(#clip1_129_1674)">
<path d="M256.601 233.821C254.546 227.271 246.522 225.123 246.311 231.239C246.079 237.944 250.748 244.763 257.659 246.125C257.123 238.498 256.601 233.821 256.601 233.821V233.821Z" fill="#E9C046"/>
<path d="M307.588 233.821C309.642 227.27 317.667 225.123 317.878 231.239C318.109 237.944 313.44 244.763 306.53 246.125C307.065 238.498 307.588 233.821 307.588 233.821V233.821Z" fill="#E9C046"/>
<path d="M271.967 222.71C276.284 218.412 276.877 212.034 273.29 208.463C269.703 204.893 263.295 205.483 258.978 209.781C254.66 214.079 254.068 220.457 257.654 224.027C261.241 227.597 267.649 227.007 271.967 222.71Z" fill="#1B1B1B"/>
<path d="M263.588 226.974C262.412 226.998 261.243 226.787 260.149 226.355C259.056 225.923 258.06 225.278 257.22 224.458C253.399 220.655 253.993 213.876 258.543 209.347C263.094 204.818 269.903 204.227 273.724 208.03C275.59 209.888 276.471 212.494 276.204 215.369C275.845 218.31 274.506 221.046 272.401 223.142C270.297 225.237 267.547 226.57 264.593 226.928C264.254 226.959 263.919 226.974 263.588 226.974V226.974ZM267.342 206.742C264.343 206.818 261.495 208.064 259.412 210.213C255.341 214.266 254.747 220.269 258.089 223.595C259.692 225.191 261.961 225.942 264.48 225.71C267.149 225.379 269.63 224.171 271.532 222.278C273.434 220.384 274.647 217.914 274.981 215.258C275.214 212.751 274.459 210.492 272.856 208.896C272.126 208.191 271.263 207.637 270.316 207.267C269.37 206.898 268.359 206.719 267.342 206.742V206.742Z" fill="#1B1B1B"/>
<path d="M299.822 224.021C305.451 224.021 310.015 219.479 310.015 213.876C310.015 208.273 305.451 203.73 299.822 203.73C294.193 203.73 289.63 208.273 289.63 213.876C289.63 219.479 294.193 224.021 299.822 224.021Z" fill="#1B1B1B"/>
<path d="M299.822 224.633C297.685 224.633 295.595 224.002 293.818 222.82C292.041 221.638 290.656 219.958 289.838 217.992C289.02 216.027 288.806 213.864 289.223 211.777C289.64 209.691 290.669 207.774 292.181 206.27C293.692 204.765 295.618 203.741 297.714 203.326C299.81 202.911 301.983 203.124 303.958 203.938C305.932 204.752 307.62 206.131 308.808 207.9C309.995 209.669 310.629 211.748 310.629 213.876C310.626 216.728 309.486 219.462 307.46 221.479C305.434 223.495 302.687 224.629 299.822 224.633ZM299.822 204.342C297.928 204.342 296.076 204.901 294.501 205.949C292.926 206.996 291.698 208.485 290.973 210.227C290.248 211.97 290.058 213.887 290.428 215.736C290.797 217.585 291.71 219.284 293.049 220.618C294.389 221.951 296.096 222.859 297.954 223.227C299.812 223.595 301.737 223.406 303.488 222.684C305.238 221.963 306.734 220.741 307.786 219.173C308.839 217.605 309.401 215.762 309.401 213.876C309.398 211.348 308.388 208.925 306.592 207.137C304.796 205.35 302.362 204.345 299.822 204.342Z" fill="#1B1B1B"/>
<path d="M257.659 246.736C257.619 246.736 257.579 246.732 257.539 246.725C250.645 245.367 245.444 238.555 245.697 231.218C245.779 228.868 246.996 227.308 248.954 227.045C251.809 226.662 255.8 229.219 257.187 233.639C257.199 233.676 257.207 233.714 257.211 233.753C257.216 233.8 257.741 238.53 258.271 246.082C258.277 246.166 258.266 246.25 258.237 246.329C258.209 246.408 258.165 246.481 258.107 246.542C258.05 246.603 257.98 246.652 257.902 246.686C257.825 246.719 257.741 246.736 257.657 246.736H257.659ZM249.551 228.229C249.407 228.228 249.263 228.238 249.119 228.257C247.765 228.439 246.986 229.506 246.925 231.26C246.702 237.73 251.067 243.751 256.988 245.341C256.512 238.738 256.057 234.491 255.997 233.947C254.87 230.436 251.822 228.229 249.551 228.229H249.551Z" fill="#1A1A1A"/>
<path d="M306.53 246.736C306.446 246.736 306.362 246.719 306.285 246.686C306.208 246.653 306.138 246.604 306.08 246.543C306.023 246.482 305.979 246.409 305.95 246.33C305.922 246.251 305.91 246.168 305.916 246.084C306.446 238.531 306.97 233.802 306.976 233.755C306.98 233.716 306.988 233.678 307 233.64C308.387 229.221 312.377 226.663 315.232 227.047C317.191 227.31 318.409 228.87 318.49 231.22C318.744 238.556 313.541 245.368 306.647 246.726C306.609 246.733 306.569 246.737 306.53 246.736V246.736ZM308.192 233.947C308.133 234.491 307.677 238.74 307.201 245.341C313.123 243.751 317.487 237.73 317.264 231.26C317.204 229.508 316.424 228.439 315.07 228.257C312.771 227.948 309.391 230.207 308.191 233.947H308.192Z" fill="#1A1A1A"/>
<path d="M282.094 276.367C297.043 276.367 309.161 260.3 309.161 240.48C309.161 220.66 297.043 204.593 282.094 204.593C267.145 204.593 255.027 220.66 255.027 240.48C255.027 260.3 267.145 276.367 282.094 276.367Z" fill="#E9C046"/>
<path d="M282.094 274.8C266.831 274.8 254.413 258.427 254.413 238.301C254.413 228.67 257.208 220.433 262.495 214.481C264.956 211.728 267.975 209.524 271.353 208.015C274.731 206.505 278.391 205.725 282.094 205.725C285.797 205.725 289.457 206.505 292.836 208.015C296.214 209.524 299.232 211.728 301.693 214.481C306.981 220.432 309.775 228.67 309.775 238.301C309.775 258.427 297.358 274.8 282.094 274.8ZM282.094 206.948C266.519 206.948 255.641 219.841 255.641 238.301C255.641 257.752 267.508 273.577 282.094 273.577C296.68 273.577 308.547 257.752 308.547 238.301C308.547 219.841 297.669 206.948 282.094 206.948Z" fill="#1A1A1A"/>
<path d="M263.341 190.621C257.691 192.968 255.755 201.123 259.664 208.138C263.733 215.438 272.416 219.808 280.67 221.282C290.134 222.972 307.247 222.321 308.187 213.096C309.002 205.108 301.081 201.579 296.472 204.519C296.641 196.09 287.189 191.474 281.742 197.051C278.782 190.31 269.405 188.103 263.341 190.621V190.621Z" fill="#1B1B1B"/>
<path d="M289.411 222.618C286.446 222.626 283.485 222.38 280.562 221.884C270.869 220.153 262.856 215.125 259.127 208.435C256.923 204.478 256.401 199.842 257.731 196.031C258.717 193.209 260.626 191.087 263.105 190.058L263.341 190.622L263.105 190.058C269.218 187.52 278.5 189.624 281.932 196.039C283.148 195.003 284.631 194.329 286.214 194.093C287.796 193.858 289.413 194.071 290.88 194.708C292.632 195.457 294.139 196.677 295.232 198.233C296.324 199.788 296.958 201.617 297.063 203.512C298.289 203.004 299.621 202.799 300.944 202.915C302.268 203.03 303.544 203.462 304.663 204.174C307.686 206.023 309.194 209.297 308.799 213.158C308.569 215.41 307.439 217.313 305.441 218.813C301.64 221.665 295.272 222.618 289.411 222.618V222.618ZM268.761 190.217C266.987 190.199 265.225 190.528 263.578 191.186C261.426 192.079 259.762 193.943 258.892 196.432C257.675 199.919 258.164 204.184 260.203 207.841C263.754 214.213 271.447 219.013 280.78 220.679C287.316 221.847 299.082 222.053 304.701 217.835C306.417 216.548 307.384 214.932 307.578 213.033C307.922 209.658 306.625 206.807 304.02 205.214C301.694 203.792 298.86 203.72 296.805 205.033C296.711 205.092 296.603 205.126 296.492 205.129C296.381 205.132 296.271 205.106 296.174 205.051C296.076 204.997 295.996 204.918 295.941 204.822C295.885 204.726 295.857 204.616 295.86 204.506C295.937 200.647 293.797 197.244 290.407 195.835C289.035 195.224 287.506 195.053 286.032 195.348C284.558 195.642 283.213 196.387 282.184 197.477C282.114 197.549 282.027 197.603 281.931 197.634C281.835 197.664 281.733 197.671 281.633 197.653C281.534 197.635 281.441 197.593 281.362 197.531C281.283 197.469 281.22 197.388 281.18 197.296C279.125 192.617 273.774 190.215 268.761 190.215V190.217Z" fill="#1B1B1B"/>
<path d="M258.914 295.478C266.721 294.041 267.681 275.203 269.322 262.544H294.866C296.507 275.203 297.467 294.041 305.274 295.478L307.515 308.379C290.728 311.709 273.45 311.764 256.641 308.54L256.143 308.445L258.914 295.478Z" fill="#E9C046"/>
<path d="M305.275 296.089C305.237 296.089 305.199 296.086 305.162 296.079C297.969 294.755 296.341 280.57 294.906 268.054C294.709 266.34 294.522 264.712 294.325 263.155H269.863C269.666 264.71 269.479 266.339 269.283 268.054C267.847 280.57 266.219 294.755 259.026 296.079C258.947 296.093 258.865 296.092 258.787 296.076C258.708 296.059 258.633 296.027 258.566 295.981C258.5 295.936 258.443 295.878 258.399 295.81C258.355 295.743 258.325 295.668 258.31 295.589C258.296 295.51 258.297 295.429 258.314 295.35C258.33 295.272 258.363 295.197 258.408 295.131C258.454 295.065 258.512 295.008 258.58 294.965C258.648 294.921 258.723 294.891 258.803 294.876C265.102 293.717 266.743 279.411 268.062 267.915C268.282 266 268.49 264.189 268.713 262.465C268.732 262.318 268.805 262.183 268.917 262.085C269.029 261.987 269.173 261.932 269.322 261.932H294.866C295.016 261.932 295.16 261.986 295.272 262.085C295.384 262.183 295.456 262.318 295.475 262.465C295.699 264.189 295.906 265.999 296.126 267.915C297.445 279.411 299.086 293.718 305.386 294.876C305.536 294.904 305.671 294.987 305.763 295.108C305.856 295.23 305.899 295.381 305.886 295.533C305.872 295.685 305.801 295.826 305.688 295.929C305.575 296.032 305.428 296.089 305.275 296.089V296.089Z" fill="#1A1A1A"/>
<path d="M282.07 247.216C296.118 247.216 298.788 237.864 308.008 240.48C318.221 243.378 312.426 278.155 281.909 278.155C251.392 278.155 244.59 240.48 256.133 240.48C267.675 240.48 268.023 247.216 282.07 247.216Z" fill="#1B1B1B"/>
<path d="M281.909 278.766C269.684 278.766 262.112 272.895 257.912 267.969C252.247 261.326 250.229 253.648 250.229 248.68C250.229 243.245 252.491 239.869 256.133 239.869C261.77 239.869 264.778 241.417 267.963 243.057C271.349 244.801 274.851 246.603 282.07 246.603C288.955 246.603 293.007 244.324 296.581 242.314C300.205 240.277 303.334 238.517 308.176 239.891C312.017 240.98 313.964 246.225 313.021 252.941C311.275 265.38 300.795 278.766 281.909 278.766V278.766ZM256.133 241.091C253.205 241.091 251.457 243.928 251.457 248.68C251.457 253.432 253.399 260.785 258.849 267.178C262.88 271.905 270.154 277.543 281.909 277.543C300.06 277.543 310.13 264.705 311.805 252.773C312.659 246.687 311.065 241.983 307.839 241.068C303.491 239.834 300.709 241.399 297.186 243.38C293.663 245.361 289.278 247.827 282.07 247.827C274.552 247.827 270.916 245.955 267.398 244.144C264.35 242.574 261.471 241.091 256.133 241.091V241.091Z" fill="#1B1B1B"/>
<path d="M283.623 254.662L295.948 250.557C296.36 257.571 288.951 260.47 283.623 254.662Z" fill="white"/>
<path d="M280.008 245.215C277.988 245.215 276.502 244.526 276.022 243.599C275.687 242.952 275.758 241.953 277.061 241.266C279.35 240.06 281.618 237.504 279.424 232.178C279.392 232.103 279.374 232.023 279.373 231.941C279.372 231.86 279.388 231.779 279.418 231.704C279.449 231.628 279.495 231.559 279.552 231.502C279.61 231.444 279.679 231.399 279.754 231.368C279.83 231.337 279.911 231.321 279.993 231.322C280.075 231.323 280.156 231.34 280.231 231.372C280.306 231.404 280.374 231.451 280.43 231.51C280.487 231.568 280.531 231.638 280.561 231.714C283.238 238.216 279.877 241.169 277.636 242.348C277.32 242.515 276.973 242.77 277.114 243.041C277.546 243.877 280.632 244.803 284.648 242.797C284.793 242.724 284.962 242.712 285.117 242.763C285.271 242.814 285.399 242.924 285.472 243.069C285.545 243.214 285.558 243.382 285.506 243.536C285.455 243.69 285.344 243.817 285.199 243.89C283.595 244.724 281.818 245.178 280.008 245.215V245.215Z" fill="#1A1A1A"/>
<path d="M269.392 234.994C266.731 234.994 264.381 234.126 263.251 232.722C263.149 232.596 263.102 232.434 263.12 232.273C263.137 232.112 263.219 231.964 263.346 231.863C263.473 231.762 263.636 231.715 263.798 231.733C263.96 231.75 264.108 231.832 264.209 231.958C265.118 233.088 267.123 233.784 269.447 233.771C271.74 233.759 273.711 233.057 274.591 231.94C274.692 231.812 274.839 231.73 275.001 231.71C275.162 231.691 275.325 231.736 275.454 231.836C275.582 231.936 275.665 232.083 275.684 232.244C275.704 232.405 275.658 232.567 275.558 232.694C274.435 234.121 272.153 234.979 269.453 234.993L269.392 234.994Z" fill="#1A1A1A"/>
<path d="M269.392 234.994C266.731 234.994 264.381 234.126 263.251 232.722C263.149 232.596 263.102 232.434 263.12 232.273C263.137 232.112 263.219 231.964 263.346 231.863C263.473 231.762 263.636 231.715 263.798 231.733C263.96 231.75 264.108 231.832 264.209 231.958C265.118 233.088 267.123 233.784 269.447 233.771C271.74 233.759 273.711 233.057 274.591 231.94C274.692 231.812 274.839 231.73 275.001 231.71C275.162 231.691 275.325 231.736 275.454 231.836C275.582 231.936 275.665 232.083 275.684 232.244C275.704 232.405 275.658 232.567 275.558 232.694C274.435 234.121 272.153 234.979 269.453 234.993L269.392 234.994Z" fill="#1A1A1A"/>
<path d="M294.795 234.994H294.732C292.032 234.98 289.75 234.121 288.627 232.695C288.577 232.632 288.54 232.559 288.519 232.482C288.497 232.405 288.491 232.324 288.501 232.244C288.52 232.083 288.603 231.936 288.731 231.836C288.86 231.736 289.022 231.691 289.184 231.711C289.346 231.73 289.493 231.813 289.594 231.94C290.474 233.058 292.445 233.76 294.738 233.771C297.058 233.782 299.067 233.088 299.975 231.959C300.077 231.832 300.225 231.751 300.387 231.733C300.549 231.715 300.712 231.762 300.839 231.864C300.966 231.965 301.047 232.112 301.065 232.273C301.083 232.435 301.036 232.596 300.934 232.723C299.805 234.126 297.457 234.994 294.795 234.994Z" fill="#1A1A1A"/>
<path d="M204.148 426.806L203.321 428.113C184.349 457.78 157.212 480.545 123.463 501.34C113.24 507.636 104.025 513.403 95.1692 516.626C88.7166 518.975 83.2352 521.973 79.9866 524.261C75.3463 527.534 65.3122 536.231 65.6229 531.482C65.8068 528.753 72.3474 521.594 78.9491 516.591C67.3259 520.099 51.421 527.31 53.3581 521.825C54.0599 519.818 58.2364 517.114 63.3984 514.605C54.2675 515.925 46.9326 516.779 48.9512 513.341C50.5272 510.657 59.7645 507.916 68.3147 506.395C61.4588 496.002 68.5117 484.994 71.0462 484.772C73.9488 484.515 71.1997 487.496 72.9858 494.612C75.6038 505.031 84.9828 503.898 85.9135 497.562C86.9556 490.498 73.4497 486.807 72.5829 483.746C71.2783 479.127 85.8492 479.349 95.8166 491.341C125.338 472.058 149.73 448.836 162.991 411.578C163.652 409.718 164.286 407.823 164.891 405.896C168.586 409.073 174.422 413.095 181.251 417.017C191.189 422.727 200.243 426.519 204.148 426.806V426.806Z" fill="#E9C046"/>
<path d="M170.197 409.994C156.061 449.117 130.071 471.685 98.5701 489.517C126.852 470.592 150.146 447.67 162.991 411.576C163.652 409.715 164.286 407.821 164.891 405.893C166.349 407.148 168.14 408.534 170.197 409.994Z" fill="white"/>
<path d="M66.6118 533.479C66.3296 533.486 66.0502 533.423 65.799 533.294C65.3973 533.08 64.9347 532.585 65.0092 531.442C65.1922 528.728 70.5245 522.787 76.001 518.169C73.9644 518.841 71.8606 519.578 69.8027 520.298C60.4974 523.556 54.7102 525.468 53.0424 523.81C52.5323 523.303 52.4426 522.567 52.7755 521.622C53.4458 519.712 56.6047 517.539 59.9364 515.703C52.7648 516.648 49.2656 516.7 48.2625 515.219C47.8624 514.628 47.9157 513.892 48.4209 513.032C50.1546 510.079 59.4803 507.419 67.3152 505.955C62.7293 498.249 65.6201 490.938 66.6466 488.828C67.9491 486.151 69.6954 484.276 70.9925 484.163C71.3754 484.114 71.7645 484.149 72.1321 484.267C72.0744 484.152 72.0275 484.032 71.992 483.909C71.6501 482.698 72.1493 481.642 73.3621 481.009C76.8834 479.175 87.6434 480.87 95.9349 490.529C96.688 490.035 97.4387 489.539 98.1869 489.041L98.1931 489.036L98.2295 489.009C131.414 466.803 151.209 442.859 162.414 411.372C163.088 409.475 163.725 407.57 164.307 405.712C164.337 405.615 164.391 405.527 164.464 405.456C164.537 405.385 164.627 405.333 164.725 405.305C164.823 405.278 164.926 405.274 165.026 405.296C165.125 405.318 165.218 405.364 165.295 405.431C166.753 406.686 168.522 408.053 170.556 409.496C173.79 411.789 177.594 414.205 181.561 416.485C191.161 422.003 200.257 425.906 204.195 426.196C204.301 426.204 204.403 426.238 204.492 426.297C204.58 426.356 204.652 426.436 204.7 426.531C204.748 426.625 204.77 426.73 204.765 426.836C204.759 426.942 204.727 427.044 204.67 427.133L203.842 428.441C186.489 455.569 161.051 478.899 123.786 501.86L122.656 502.556C113.045 508.479 103.967 514.073 95.3797 517.201C89.8005 519.231 84.1782 522.057 80.3408 524.76C79.4597 525.381 78.364 526.214 77.204 527.095C72.2246 530.88 68.6341 533.479 66.6118 533.479V533.479ZM78.9483 515.98C79.0769 515.98 79.2022 516.02 79.3067 516.095C79.4112 516.169 79.4895 516.275 79.5306 516.396C79.5718 516.517 79.5736 516.648 79.5359 516.771C79.4982 516.893 79.4228 517 79.3205 517.078C72.7598 522.05 66.4005 529.069 66.2351 531.522C66.2109 531.889 66.2662 532.156 66.3788 532.215C67.592 532.862 73.3596 528.477 76.4584 526.122C77.6278 525.234 78.7317 524.394 79.6308 523.758C83.5526 520.996 89.2821 518.114 94.9575 516.048C103.428 512.964 112.453 507.402 122.009 501.513L123.14 500.816C160.242 477.955 185.556 454.748 202.802 427.781L203.116 427.287C198.627 426.518 189.972 422.731 180.944 417.54C176.944 415.242 173.105 412.803 169.841 410.489C168.094 409.25 166.537 408.063 165.199 406.953C164.69 408.545 164.144 410.163 163.57 411.777C152.275 443.516 132.342 467.643 98.9473 489.999C98.9329 490.01 98.9182 490.021 98.9026 490.031C97.9906 490.638 97.0744 491.243 96.154 491.847C96.0274 491.929 95.8747 491.962 95.7251 491.94C95.5755 491.917 95.4395 491.84 95.3432 491.724C87.5382 482.334 77.1049 480.435 73.932 482.088C73.0124 482.568 73.0591 483.165 73.1745 483.573C73.4247 484.459 75.5379 485.728 77.5811 486.956C81.8853 489.542 87.2442 492.76 86.5215 497.647C86.0711 500.696 83.7909 502.842 80.8432 502.988C77.9361 503.133 73.975 501.064 72.39 494.756C71.7674 492.284 71.5686 489.725 71.802 487.188C71.8516 486.438 71.9077 485.588 71.7496 485.435C71.7386 485.425 71.6268 485.331 71.1006 485.378C70.5057 485.43 69.0304 486.731 67.7521 489.358C66.7625 491.392 63.9151 498.61 68.8282 506.056C68.8839 506.14 68.9178 506.237 68.9266 506.338C68.9355 506.439 68.9191 506.54 68.8789 506.633C68.8388 506.726 68.7761 506.807 68.6965 506.87C68.6169 506.933 68.5228 506.975 68.4228 506.993C58.5377 508.751 50.7487 511.487 49.4814 513.646C49.3426 513.883 49.1317 514.312 49.2812 514.532C50.2016 515.891 58.4071 514.705 63.3099 513.996C63.4548 513.975 63.6025 514.007 63.7262 514.085C63.8499 514.162 63.9417 514.282 63.9848 514.421C64.028 514.56 64.0198 514.71 63.9617 514.844C63.9035 514.978 63.7993 515.086 63.6678 515.151C58.0583 517.879 54.5103 520.384 53.9351 522.024C53.8225 522.342 53.7271 522.76 53.9105 522.942C55.1163 524.141 63.0336 521.369 69.3953 519.142C72.5423 518.042 75.7967 516.901 78.7718 516.004C78.8291 515.987 78.8886 515.979 78.9483 515.98V515.98ZM73.0206 485.364C73.1011 485.998 73.1034 486.638 73.0275 487.272C72.8052 489.683 72.9924 492.114 73.5815 494.463C74.9843 500.046 78.2182 501.898 80.7822 501.771C83.1267 501.654 84.9447 499.927 85.3059 497.473C85.9082 493.39 80.939 490.405 76.9464 488.006C75.3299 487.036 73.9287 486.194 73.0206 485.364V485.364Z" fill="#1A1A1A"/>
<path d="M65.6229 532.093C65.609 532.093 65.5955 532.093 65.582 532.093C65.5013 532.088 65.4224 532.067 65.3498 532.031C65.2773 531.996 65.2125 531.946 65.1593 531.885C65.106 531.825 65.0653 531.754 65.0395 531.678C65.0136 531.602 65.0032 531.521 65.0088 531.441C65.2544 527.787 74.631 518.458 81.719 513.893C81.8558 513.805 82.0221 513.775 82.1814 513.809C82.3407 513.843 82.4799 513.938 82.5685 514.074C82.657 514.211 82.6875 514.376 82.6534 514.535C82.6192 514.693 82.5232 514.832 82.3865 514.92C74.5892 519.94 66.4161 528.812 66.2351 531.522C66.2248 531.677 66.1559 531.822 66.0422 531.928C65.9286 532.034 65.7787 532.093 65.6229 532.093V532.093Z" fill="#1A1A1A"/>
<path d="M48.9499 513.954C48.8419 513.954 48.7358 513.925 48.6424 513.871C48.549 513.817 48.4715 513.74 48.4178 513.646C48.3641 513.553 48.3361 513.447 48.3366 513.34C48.337 513.232 48.366 513.127 48.4205 513.034C50.704 509.144 66.7747 505.448 76.4023 504.712C76.4832 504.705 76.5647 504.713 76.642 504.738C76.7194 504.762 76.7912 504.802 76.8531 504.854C76.915 504.907 76.9659 504.971 77.0029 505.043C77.0398 505.115 77.062 505.193 77.0682 505.274C77.0745 505.354 77.0646 505.435 77.0391 505.512C77.0137 505.589 76.9732 505.66 76.92 505.721C76.8669 505.782 76.802 505.832 76.7293 505.868C76.6566 505.904 76.5775 505.925 76.4964 505.931C66.1196 506.725 51.3195 510.519 49.481 513.651C49.4268 513.743 49.3492 513.82 49.2561 513.873C49.1629 513.926 49.0573 513.954 48.9499 513.954V513.954Z" fill="#1A1A1A"/>
<path d="M53.3532 522.435C53.2549 522.435 53.1581 522.411 53.0708 522.367C52.9835 522.322 52.9083 522.256 52.8515 522.177C52.7947 522.097 52.7581 522.004 52.7445 521.908C52.731 521.811 52.7411 521.712 52.7738 521.62C54.2364 517.468 68.8061 510.906 78.194 508.211C78.3506 508.166 78.5186 508.185 78.6612 508.263C78.8038 508.342 78.9093 508.473 78.9544 508.629C78.9995 508.785 78.9806 508.952 78.9018 509.094C78.823 509.236 78.6908 509.341 78.5343 509.386C68.4441 512.28 55.1102 518.681 53.933 522.023C53.8914 522.143 53.8132 522.247 53.7093 522.321C53.6053 522.395 53.4809 522.435 53.3532 522.435V522.435Z" fill="#1A1A1A"/>
<path d="M204.148 426.806L203.321 428.113C199.201 428.035 190.077 425.211 179.938 420.674C173.012 417.577 166.997 414.304 162.991 411.576C163.652 409.715 164.286 407.821 164.891 405.893C168.586 409.07 174.422 413.092 181.251 417.014C191.189 422.727 200.243 426.518 204.148 426.806Z" fill="#1B1B1B"/>
<path d="M203.321 428.725H203.309C198.946 428.643 189.674 425.7 179.686 421.232C173.012 418.247 166.801 414.911 162.645 412.081C162.533 412.004 162.449 411.894 162.407 411.766C162.365 411.637 162.367 411.499 162.412 411.372C163.086 409.475 163.722 407.57 164.305 405.712C164.335 405.615 164.389 405.527 164.462 405.456C164.535 405.385 164.625 405.333 164.723 405.305C164.821 405.278 164.924 405.274 165.024 405.296C165.123 405.318 165.216 405.364 165.293 405.431C169.106 408.709 175.035 412.738 181.558 416.485C191.159 422.003 200.255 425.906 204.193 426.196C204.299 426.204 204.401 426.239 204.489 426.298C204.577 426.356 204.648 426.436 204.696 426.531C204.744 426.625 204.766 426.73 204.761 426.835C204.756 426.94 204.724 427.043 204.668 427.132L203.84 428.439C203.785 428.527 203.708 428.599 203.617 428.649C203.526 428.698 203.424 428.725 203.321 428.725V428.725ZM163.726 411.334C167.821 414.068 173.783 417.252 180.186 420.117C189.624 424.34 198.686 427.263 202.986 427.49L203.112 427.29C198.623 426.521 189.969 422.734 180.941 417.544C174.743 413.985 169.067 410.165 165.196 406.955C164.736 408.401 164.244 409.868 163.728 411.334H163.726Z" fill="#1B1B1B"/>
<path d="M498.602 513.733C503.763 516.243 507.94 518.944 508.645 520.953C510.58 526.44 494.675 519.228 483.051 515.72C489.653 520.722 496.195 527.882 496.378 530.61C496.689 535.36 486.655 526.662 482.014 523.389C478.766 521.101 473.284 518.103 466.831 515.754C457.975 512.53 448.759 506.764 438.538 500.468C404.788 479.673 377.652 456.909 358.679 427.242L357.852 425.934C358.093 425.917 358.351 425.886 358.627 425.839C362.112 426.004 371.725 422.073 382.338 415.973C388.401 412.486 393.685 408.931 397.402 405.941C397.914 407.554 398.45 409.141 399.009 410.704C412.269 447.962 436.663 471.184 466.183 490.467C476.152 478.475 490.722 478.253 489.417 482.872C488.55 485.935 475.045 489.626 476.086 496.688C477.019 503.024 486.396 504.157 489.014 493.738C490.8 486.622 488.051 483.641 490.953 483.898C493.488 484.12 500.541 495.128 493.685 505.521C502.236 507.042 511.473 509.782 513.049 512.467C515.065 515.905 507.736 515.053 498.602 513.733V513.733Z" fill="#E9C046"/>
<path d="M464.647 489.455C432.255 471.945 404.705 449.939 386.921 413.23C390.557 411.009 394.057 408.575 397.403 405.94C397.916 407.552 398.451 409.14 399.01 410.703C399.067 410.868 399.128 411.034 399.19 411.2C412.256 447.522 435.95 470.462 464.647 489.455V489.455Z" fill="white"/>
<path d="M398.75 410.33C387.276 418.2 365.259 427.751 358.806 427.237H358.802C358.299 426.466 358.342 426.527 357.813 425.686C360.317 426.723 370.732 422.649 382.339 415.973C387.555 413.027 392.549 409.708 397.281 406.041C397.822 407.715 398.435 409.48 398.75 410.33Z" fill="#1B1B1B"/>
<path d="M359.339 427.868C359.136 427.868 358.944 427.861 358.762 427.847C358.667 427.84 358.574 427.812 358.492 427.764C358.41 427.716 358.34 427.65 358.287 427.57C357.893 426.967 357.831 426.869 357.574 426.459L357.292 426.011C357.223 425.901 357.19 425.772 357.2 425.642C357.209 425.513 357.259 425.39 357.344 425.29C357.428 425.191 357.542 425.122 357.668 425.091C357.795 425.061 357.928 425.071 358.049 425.121C360.048 425.95 369.787 422.486 382.03 415.443C387.797 412.125 393.076 408.617 396.893 405.565C396.971 405.503 397.063 405.461 397.16 405.442C397.258 405.423 397.359 405.427 397.454 405.456C397.55 405.484 397.637 405.535 397.708 405.605C397.779 405.674 397.832 405.76 397.863 405.854C398.405 407.527 399.009 409.266 399.325 410.118C399.372 410.245 399.376 410.385 399.334 410.514C399.293 410.644 399.21 410.756 399.097 410.833C388.342 418.213 366.843 427.868 359.339 427.868V427.868ZM359.147 426.643C365.494 426.822 386.414 417.925 398.01 410.093C397.737 409.332 397.352 408.218 396.97 407.066C392.411 410.525 387.626 413.678 382.645 416.501C373.97 421.491 363.552 426.338 359.024 426.454L359.147 426.643Z" fill="#1B1B1B"/>
<path d="M495.388 532.608C493.366 532.608 489.776 530.009 484.797 526.225C483.636 525.343 482.54 524.509 481.659 523.888C477.821 521.185 472.2 518.359 466.62 516.329C458.032 513.202 448.954 507.607 439.342 501.684L438.214 500.988C401.343 478.273 376.094 455.235 358.762 428.493C358.749 428.477 358.737 428.46 358.725 428.443C358.533 428.149 358.344 427.86 358.159 427.566L357.332 426.262C357.275 426.173 357.243 426.07 357.237 425.965C357.232 425.859 357.255 425.754 357.302 425.659C357.35 425.565 357.422 425.484 357.51 425.426C357.599 425.367 357.701 425.332 357.807 425.325C358.047 425.307 358.285 425.278 358.521 425.236C358.566 425.229 358.611 425.226 358.656 425.228C362.057 425.388 371.887 421.274 382.03 415.443C383.537 414.578 385.073 413.659 386.596 412.713C390.21 410.504 393.69 408.084 397.016 405.466C397.094 405.403 397.185 405.361 397.284 405.342C397.382 405.322 397.483 405.327 397.579 405.356C397.675 405.385 397.762 405.436 397.833 405.506C397.904 405.576 397.957 405.662 397.987 405.757C398.471 407.28 398.995 408.832 399.588 410.5C399.645 410.667 399.705 410.828 399.764 410.989C411.126 442.568 431.241 466.61 464.987 488.947C465.347 489.185 465.706 489.422 466.065 489.657C474.357 479.998 485.118 478.301 488.638 480.137C489.851 480.77 490.35 481.826 490.008 483.037C489.973 483.16 489.926 483.28 489.868 483.395C490.236 483.277 490.625 483.242 491.008 483.291C492.305 483.404 494.051 485.279 495.353 487.956C496.379 490.066 499.27 497.378 494.685 505.083C502.52 506.547 511.845 509.207 513.579 512.16C514.084 513.021 514.138 513.756 513.738 514.347C512.734 515.828 509.234 515.776 502.064 514.831C505.396 516.668 508.554 518.841 509.225 520.751C509.557 521.694 509.467 522.43 508.958 522.938C507.29 524.597 501.502 522.684 492.197 519.426C490.139 518.706 488.035 517.969 485.999 517.297C491.475 521.915 496.809 527.856 496.991 530.569C497.065 531.713 496.603 532.208 496.201 532.423C495.95 532.551 495.67 532.615 495.388 532.608V532.608ZM359.721 427.723C359.735 427.741 359.749 427.759 359.762 427.778C376.992 454.384 402.127 477.317 438.861 499.948L439.99 500.644C449.547 506.534 458.573 512.096 467.043 515.181C472.719 517.246 478.448 520.128 482.37 522.89C483.271 523.525 484.374 524.364 485.543 525.254C488.642 527.609 494.41 531.993 495.622 531.346C495.735 531.286 495.79 531.02 495.766 530.651C495.602 528.199 489.241 521.179 482.681 516.207C482.566 516.121 482.486 515.996 482.454 515.857C482.422 515.717 482.44 515.57 482.506 515.443C482.571 515.315 482.68 515.214 482.813 515.158C482.945 515.102 483.093 515.094 483.231 515.136C486.204 516.033 489.458 517.174 492.606 518.274C498.967 520.502 506.884 523.274 508.09 522.074C508.274 521.892 508.179 521.475 508.067 521.157C507.491 519.516 503.943 517.011 498.333 514.283C498.202 514.219 498.098 514.11 498.04 513.976C497.981 513.843 497.973 513.693 498.016 513.553C498.06 513.414 498.151 513.295 498.275 513.217C498.399 513.139 498.546 513.108 498.691 513.129C503.594 513.837 511.8 515.024 512.72 513.665C512.869 513.445 512.659 513.015 512.52 512.778C511.25 510.618 503.463 507.884 493.578 506.126C493.478 506.108 493.384 506.066 493.305 506.003C493.225 505.94 493.162 505.858 493.122 505.765C493.082 505.673 493.066 505.571 493.075 505.47C493.083 505.37 493.117 505.273 493.173 505.188C498.087 497.74 495.238 490.524 494.249 488.49C492.971 485.863 491.495 484.562 490.901 484.51C490.375 484.463 490.263 484.557 490.251 484.568C490.093 484.721 490.15 485.571 490.199 486.32C490.432 488.858 490.233 491.416 489.611 493.888C488.027 500.195 484.065 502.264 481.158 502.12C478.21 501.974 475.928 499.828 475.48 496.779C474.759 491.892 480.116 488.674 484.42 486.088C486.464 484.861 488.576 483.591 488.827 482.705C488.942 482.298 488.989 481.7 488.069 481.22C484.896 479.565 474.463 481.467 466.658 490.856C466.562 490.972 466.426 491.049 466.276 491.072C466.126 491.094 465.974 491.061 465.847 490.979C465.334 490.642 464.82 490.305 464.307 489.966C430.327 467.473 410.065 443.245 398.61 411.407C398.549 411.244 398.487 411.072 398.428 410.902C397.941 409.532 397.5 408.237 397.088 406.971C393.931 409.403 390.645 411.666 387.246 413.75C385.711 414.703 384.163 415.629 382.645 416.502C372.271 422.465 362.839 426.411 358.907 426.454L359.199 426.915C359.371 427.188 359.546 427.456 359.721 427.723V427.723ZM488.979 484.493C488.071 485.323 486.67 486.164 485.054 487.135C481.061 489.533 476.092 492.518 476.694 496.601C477.055 499.056 478.873 500.783 481.218 500.899C483.78 501.027 487.016 499.173 488.418 493.591C489.007 491.242 489.195 488.811 488.972 486.4C488.897 485.767 488.899 485.126 488.979 484.493Z" fill="#1A1A1A"/>
<path d="M496.377 531.221C496.221 531.221 496.07 531.163 495.956 531.057C495.842 530.951 495.773 530.805 495.762 530.651C495.581 527.94 487.41 519.069 479.61 514.048C479.543 514.004 479.484 513.948 479.438 513.882C479.393 513.816 479.36 513.741 479.343 513.663C479.326 513.584 479.325 513.503 479.34 513.424C479.354 513.345 479.384 513.27 479.428 513.203C479.472 513.135 479.529 513.077 479.595 513.031C479.662 512.986 479.736 512.954 479.815 512.937C479.894 512.92 479.976 512.919 480.055 512.933C480.134 512.948 480.21 512.978 480.278 513.021C487.367 517.586 496.744 526.916 496.988 530.569C496.994 530.65 496.984 530.73 496.958 530.807C496.932 530.883 496.891 530.953 496.838 531.014C496.785 531.075 496.72 531.124 496.647 531.16C496.575 531.195 496.496 531.216 496.415 531.222L496.377 531.221Z" fill="#1A1A1A"/>
<path d="M513.049 513.083C512.942 513.083 512.836 513.055 512.742 513.002C512.649 512.949 512.571 512.872 512.517 512.779C510.678 509.648 495.878 505.854 485.501 505.059C485.42 505.054 485.341 505.032 485.269 504.996C485.196 504.96 485.131 504.91 485.078 504.849C485.025 504.788 484.984 504.717 484.959 504.64C484.933 504.564 484.923 504.483 484.93 504.402C484.936 504.322 484.958 504.243 484.995 504.171C485.032 504.099 485.083 504.035 485.145 503.983C485.207 503.93 485.279 503.891 485.356 503.866C485.433 503.842 485.515 503.833 485.596 503.84C495.223 504.577 511.294 508.273 513.578 512.162C513.632 512.255 513.662 512.361 513.662 512.468C513.663 512.576 513.635 512.682 513.581 512.775C513.527 512.869 513.449 512.946 513.356 513C513.262 513.054 513.156 513.083 513.048 513.083H513.049Z" fill="#1A1A1A"/>
<path d="M508.646 521.563C508.519 521.563 508.395 521.524 508.291 521.451C508.187 521.378 508.109 521.275 508.066 521.156C506.889 517.814 493.555 511.415 483.465 508.521C483.387 508.499 483.315 508.462 483.252 508.412C483.189 508.362 483.136 508.3 483.097 508.229C483.058 508.159 483.034 508.082 483.025 508.002C483.016 507.922 483.022 507.841 483.045 507.764C483.067 507.687 483.105 507.615 483.155 507.552C483.205 507.49 483.267 507.437 483.338 507.399C483.409 507.36 483.486 507.335 483.566 507.326C483.646 507.317 483.728 507.324 483.805 507.346C493.193 510.04 507.763 516.602 509.225 520.755C509.258 520.847 509.268 520.946 509.255 521.043C509.241 521.14 509.204 521.232 509.148 521.312C509.091 521.392 509.016 521.457 508.928 521.502C508.841 521.547 508.744 521.57 508.646 521.57V521.563Z" fill="#1A1A1A"/>
<path d="M357.733 425.651C357.573 425.582 357.439 425.465 357.349 425.316L357.733 425.651Z" fill="white"/>
<path d="M305.133 296.002C305.041 295.98 304.945 295.961 304.847 295.945C304.887 295.801 304.916 295.654 304.934 295.505L305.133 296.002Z" fill="white"/>
<path d="M357.733 425.651C357.573 425.582 357.439 425.465 357.349 425.316L357.733 425.651Z" fill="white"/>
<path d="M305.133 296.002C305.041 295.98 304.945 295.961 304.847 295.945C304.887 295.801 304.916 295.654 304.934 295.505L305.133 296.002Z" fill="white"/>
<path d="M398.926 404.673C395.213 407.889 389.285 411.977 382.338 415.973C370.605 422.718 360.094 426.81 357.734 425.651C357.055 424.492 356.392 423.321 355.746 422.139C353.557 441.195 351.872 460.395 350.69 479.738C330.95 484.314 313.171 490.572 303.023 494.476C284.43 501.627 275.954 498.01 268.004 494.476C257.69 489.892 238.462 482.894 217.343 478.095C214.864 459.258 211.915 440.573 208.495 422.039C207.707 423.485 206.896 424.915 206.061 426.327C204.783 428.324 193.711 424.178 181.251 417.014C174.369 413.061 168.499 409.009 164.808 405.824C161.783 403.215 160.22 401.183 160.758 400.255L160.75 400.25C163.674 392.707 166.568 384.497 169.497 375.495C181.899 337.395 201.18 304.325 258.793 295.575C259.366 299.614 269.471 302.834 281.86 302.834C294.316 302.834 304.472 299.58 304.936 295.505C312.547 296.603 320.056 298.313 327.39 300.617C356.552 309.929 372.93 327.386 383.791 348.529C388.16 357.018 391.636 366.104 394.692 375.495C397.463 384.009 400.199 391.814 402.963 399.017L402.959 399.104C403.5 400.036 401.942 402.068 398.926 404.673V404.673Z" fill="white"/>
<path d="M386.744 391.677C386.656 391.677 386.569 391.658 386.488 391.621C386.408 391.585 386.336 391.531 386.279 391.465C383.778 388.578 381.763 385.015 380.117 380.571C377.868 374.501 378.148 368.915 380.903 364.843C381.818 363.434 383.059 362.264 384.522 361.433C385.986 360.601 387.629 360.131 389.313 360.063C389.476 360.057 389.634 360.116 389.753 360.227C389.872 360.338 389.942 360.491 389.947 360.654C389.953 360.816 389.893 360.973 389.782 361.092C389.671 361.21 389.517 361.28 389.354 361.285C387.864 361.348 386.412 361.767 385.119 362.505C383.826 363.243 382.73 364.279 381.923 365.526C379.394 369.264 379.162 374.457 381.271 380.149C382.865 384.453 384.807 387.893 387.21 390.667C387.287 390.756 387.336 390.865 387.353 390.98C387.369 391.096 387.352 391.214 387.303 391.321C387.254 391.427 387.176 391.517 387.077 391.581C386.978 391.644 386.863 391.677 386.745 391.678L386.744 391.677Z" fill="#E9C046"/>
<path d="M191.043 398.81C190.924 398.81 190.807 398.775 190.707 398.71C190.608 398.645 190.529 398.552 190.481 398.444C190.434 398.335 190.419 398.215 190.439 398.097C190.458 397.98 190.512 397.872 190.593 397.784C192.264 395.983 193.097 393.057 191.191 390.576C190.436 389.595 189.276 388.808 187.932 387.898C184.667 385.685 180.602 382.932 178.574 375.268C178.415 374.621 178.29 373.965 178.2 373.305C177.987 371.922 177.787 370.615 176.919 369.759C175.732 368.588 174.045 368.604 171.904 369.806C171.762 369.886 171.594 369.906 171.437 369.863C171.28 369.819 171.147 369.715 171.067 369.574C170.987 369.433 170.967 369.266 171.011 369.11C171.054 368.954 171.159 368.821 171.3 368.741C174.635 366.867 176.667 367.789 177.784 368.891C178.94 370.032 179.181 371.601 179.414 373.119C179.498 373.737 179.614 374.35 179.762 374.956C181.675 382.178 185.527 384.789 188.623 386.886C190.056 387.857 191.291 388.695 192.166 389.833C194.193 392.469 193.923 395.997 191.495 398.613C191.438 398.675 191.368 398.725 191.29 398.759C191.212 398.793 191.128 398.81 191.043 398.81V398.81Z" fill="#E9C046"/>
<path d="M218.686 365.897C215.295 365.897 213.5 364.087 211.757 362.328C209.754 360.307 207.862 358.398 203.416 359.065C200.943 359.437 198.544 358.695 196.279 356.858C190.929 352.516 187.748 343.056 187.372 335.955C187.365 335.821 187.402 335.688 187.478 335.578C190.347 331.378 193.551 327.415 197.059 323.727C197.159 323.622 197.293 323.556 197.438 323.54C197.582 323.525 197.728 323.561 197.848 323.642C198.224 323.895 198.609 324.177 199.016 324.475C201.255 326.114 204.32 328.359 210.276 328.719C220.848 329.357 226.848 340.649 227.309 351.475C227.652 359.489 224.892 365.103 220.277 365.776C219.75 365.855 219.218 365.896 218.686 365.897V365.897ZM205.111 357.708C208.904 357.708 210.87 359.691 212.632 361.469C214.577 363.432 216.258 365.128 220.099 364.567C224.589 363.912 226.34 357.546 226.083 351.528C225.643 341.249 220.047 330.534 210.2 329.94C203.882 329.558 200.648 327.189 198.285 325.46C198.044 325.283 197.81 325.112 197.584 324.951C194.312 328.434 191.311 332.16 188.609 336.096C189.081 344.003 192.615 352.308 197.054 355.911C199.037 357.52 201.115 358.175 203.232 357.856C203.854 357.76 204.482 357.711 205.111 357.708V357.708Z" fill="#E9C046"/>
<path d="M367.83 358.417C364.091 358.396 360.413 357.462 357.121 355.697C346.837 350.227 343.781 340.912 340.824 331.903C338.915 326.086 337.112 320.59 333.495 316.112C332.814 315.27 331.956 314.41 331.049 313.499C328.301 310.741 325.186 307.616 325.64 303.56C325.753 302.365 326.187 301.222 326.897 300.251C326.973 300.149 327.08 300.073 327.202 300.035C327.324 299.996 327.455 299.996 327.577 300.035C353.685 308.372 371.721 323.693 384.337 348.251C384.381 348.337 384.404 348.433 384.404 348.53C384.404 348.627 384.381 348.722 384.337 348.808C383.191 350.946 381.624 352.832 379.73 354.354C377.836 355.876 375.653 357.002 373.312 357.667C371.529 358.17 369.684 358.422 367.83 358.417V358.417ZM327.64 301.339C327.208 302.057 326.943 302.862 326.862 303.695C326.472 307.171 329.242 309.95 331.921 312.638C332.811 313.497 333.656 314.4 334.455 315.344C338.213 319.997 340.135 325.856 341.994 331.524C344.875 340.303 347.853 349.381 357.701 354.619C362.547 357.196 368.114 357.879 372.976 356.493C377.275 355.272 380.914 352.408 383.098 348.526C370.72 324.58 353.08 309.569 327.64 301.339V301.339Z" fill="#E9C046"/>
<path d="M305.821 478.222C305.664 478.222 305.513 478.162 305.399 478.055C301.065 473.972 297.378 472.439 293.811 470.956C289.566 469.191 285.556 467.523 281.789 461.553C276.707 453.501 279.066 445.311 284.023 441.382C288.423 437.895 296.528 436.786 304.893 445.136C308.859 449.074 312.269 453.53 315.03 458.381C315.07 458.451 315.096 458.528 315.106 458.608C315.116 458.688 315.11 458.769 315.088 458.847C315.067 458.925 315.03 458.997 314.98 459.061C314.93 459.124 314.868 459.177 314.798 459.217C314.727 459.256 314.65 459.281 314.569 459.291C314.489 459.301 314.408 459.294 314.33 459.272C314.252 459.25 314.179 459.213 314.116 459.164C314.052 459.114 313.999 459.052 313.96 458.981C311.254 454.227 307.911 449.86 304.023 446.001C296.239 438.231 288.984 439.015 284.788 442.34C280.258 445.93 278.131 453.46 282.829 460.905C286.389 466.546 290.048 468.068 294.285 469.83C297.782 471.284 301.745 472.932 306.241 477.169C306.33 477.253 306.392 477.362 306.419 477.481C306.445 477.601 306.435 477.725 306.389 477.839C306.344 477.952 306.265 478.05 306.164 478.118C306.062 478.187 305.942 478.224 305.819 478.224L305.821 478.222Z" fill="#E9C046"/>
<path d="M355.746 422.75C355.625 422.75 355.507 422.715 355.406 422.648C355.305 422.581 355.226 422.485 355.179 422.374C355.133 422.262 355.12 422.14 355.144 422.021C355.167 421.903 355.225 421.794 355.311 421.708C355.396 421.623 355.505 421.564 355.624 421.54C355.743 421.516 355.866 421.527 355.978 421.573C356.091 421.618 356.187 421.696 356.255 421.796C356.323 421.896 356.36 422.014 356.361 422.134V422.139C356.361 422.301 356.296 422.457 356.181 422.571C356.066 422.686 355.909 422.75 355.746 422.75V422.75Z" fill="#1A1A1A"/>
<path d="M284.199 499.199C277.127 499.199 272.223 497.021 267.752 495.036C257.439 490.451 238.013 483.42 217.208 478.692C217.086 478.665 216.975 478.6 216.89 478.508C216.806 478.416 216.752 478.3 216.736 478.176C216.345 475.194 215.917 472.051 215.463 468.832C213.344 453.689 210.903 438.559 208.203 423.832C207.683 424.756 207.144 425.694 206.59 426.633C206.275 427.127 205.352 428.57 197.632 425.676C192.92 423.909 186.993 421.021 180.944 417.545C174.311 413.735 168.283 409.631 164.405 406.285C159.942 402.431 159.778 400.88 160.164 400.065C160.168 400.053 160.172 400.04 160.177 400.028C162.327 394.479 164.452 388.598 166.674 382.051C167.399 379.91 168.131 377.704 168.912 375.305C174.199 359.076 180.271 346.082 187.476 335.578C190.346 331.379 193.55 327.416 197.057 323.727C211.846 308.263 231.436 299.123 258.701 294.97C258.781 294.958 258.863 294.962 258.942 294.982C259.021 295.001 259.095 295.036 259.16 295.084C259.226 295.132 259.281 295.193 259.322 295.263C259.363 295.332 259.391 295.409 259.402 295.489C259.861 298.727 268.578 302.222 281.859 302.222C294.838 302.222 303.953 298.714 304.325 295.437C304.334 295.355 304.36 295.276 304.401 295.205C304.441 295.133 304.496 295.07 304.561 295.02C304.627 294.97 304.702 294.934 304.782 294.913C304.862 294.893 304.945 294.889 305.026 294.901C331.943 298.914 352.324 308.432 367.333 323.994C382.371 339.587 390.166 359.607 395.276 375.306C398.114 384.024 400.817 391.709 403.537 398.801C403.557 398.854 403.57 398.909 403.575 398.964C403.932 399.794 403.698 401.36 399.328 405.137C395.45 408.495 389.369 412.636 382.646 416.502C372.676 422.233 360.544 427.71 357.465 426.202C357.356 426.149 357.266 426.065 357.206 425.962C356.845 425.346 356.49 424.729 356.141 424.11C354.087 442.311 352.46 461.03 351.303 479.779C351.295 479.91 351.245 480.035 351.16 480.136C351.074 480.237 350.959 480.307 350.83 480.337C330.388 485.072 312.243 491.586 303.247 495.05C299.925 496.351 296.508 497.401 293.027 498.188C290.129 498.84 287.17 499.179 284.199 499.199V499.199ZM217.898 477.598C238.604 482.335 257.464 489.124 268.253 493.92C274.494 496.692 280.948 499.558 292.762 496.991C296.182 496.217 299.539 495.186 302.802 493.908C311.763 490.46 329.771 483.992 350.103 479.249C351.3 459.978 352.992 440.742 355.135 422.071C355.15 421.942 355.205 421.821 355.294 421.725C355.383 421.63 355.499 421.565 355.627 421.54C355.755 421.516 355.888 421.532 356.006 421.587C356.124 421.643 356.222 421.734 356.284 421.848C356.883 422.943 357.512 424.058 358.16 425.165C360.363 425.851 369.905 422.415 382.031 415.445C388.69 411.617 394.701 407.524 398.523 404.215C402.178 401.056 402.58 399.676 402.426 399.411C402.375 399.323 402.347 399.224 402.344 399.122C399.632 392.042 396.937 384.374 394.107 375.684C380.545 334.025 360.252 304.555 305.411 296.197C304.078 300.37 294.246 303.443 281.859 303.443C269.583 303.443 259.755 300.397 258.332 296.263C231.636 300.413 212.439 309.415 197.947 324.569C194.486 328.21 191.323 332.122 188.489 336.266C181.352 346.672 175.33 359.564 170.079 375.68C169.297 378.085 168.564 380.295 167.837 382.44C165.621 388.97 163.501 394.838 161.357 400.377C161.344 400.44 161.322 400.5 161.29 400.555C161.138 400.819 161.545 402.196 165.209 405.36C169.03 408.657 174.989 412.711 181.557 416.484C195.991 424.779 204.843 427.085 205.541 425.994C206.38 424.57 207.197 423.133 207.957 421.743C208.018 421.632 208.111 421.542 208.225 421.486C208.339 421.43 208.468 421.411 208.593 421.431C208.719 421.451 208.835 421.509 208.926 421.597C209.016 421.686 209.078 421.8 209.101 421.924C211.926 437.198 214.477 452.923 216.68 468.661C217.112 471.734 217.522 474.737 217.898 477.597V477.598Z" fill="#1A1A1A"/>
<path d="M208.97 405.609C204.256 405.609 192.995 400.167 185.322 395.755C177.268 391.129 170.351 386.241 166.818 382.678C166.761 382.621 166.717 382.553 166.686 382.479C166.656 382.405 166.64 382.325 166.641 382.245C166.642 382.164 166.658 382.085 166.689 382.011C166.721 381.937 166.766 381.87 166.824 381.814C166.881 381.757 166.949 381.713 167.024 381.682C167.098 381.652 167.178 381.637 167.259 381.637C167.34 381.638 167.42 381.654 167.494 381.685C167.568 381.716 167.636 381.762 167.692 381.819C171.1 385.256 178.092 390.19 185.936 394.698C200.369 402.996 209.222 405.302 209.921 404.211C210.009 404.076 210.148 403.981 210.306 403.946C210.464 403.912 210.63 403.942 210.766 404.028C210.903 404.115 211 404.252 211.036 404.409C211.071 404.567 211.043 404.732 210.957 404.868C210.628 405.38 209.936 405.609 208.97 405.609V405.609Z" fill="#1A1A1A"/>
<path d="M292.895 497.587C281.021 500.167 274.347 497.294 268.004 494.477C257.69 489.892 238.462 482.895 217.347 478.098C216.937 474.976 216.513 471.859 216.073 468.748C216.249 468.471 216.327 468.308 216.274 468.295C213.289 446.776 209.679 425.475 205.444 404.394C204.416 399.295 203.351 394.216 202.25 389.155C199.421 378.017 209.108 381.974 210.345 400.856C211.368 416.442 213.35 430.295 216.634 442.986C219.287 450.925 223.357 457.014 225.4 458.979C229.004 462.447 234.523 462.41 234.838 459.04C234.597 452.502 241.582 448.904 248.653 460.116C257.91 474.792 270.623 485.348 292.895 497.587Z" fill="#1B1B1B"/>
<path d="M284.199 499.198C277.127 499.198 272.223 497.02 267.752 495.036C257.439 490.451 238.013 483.42 217.208 478.692C217.086 478.665 216.975 478.6 216.89 478.508C216.806 478.415 216.752 478.299 216.736 478.176C216.345 475.194 215.917 472.051 215.463 468.832C215.443 468.689 215.475 468.543 215.552 468.421C215.593 468.353 215.626 468.302 215.648 468.264C212.65 446.665 209.015 425.217 204.838 404.513C203.819 399.459 202.745 394.336 201.644 389.284C200.819 386.034 200.961 383.719 202.054 382.785C202.33 382.557 202.667 382.414 203.023 382.374C203.38 382.334 203.74 382.399 204.06 382.56C206.972 383.777 210.276 390.439 210.955 400.815C212.008 416.84 214.058 430.578 217.22 442.812C219.899 450.817 223.917 456.706 225.823 458.538C228.148 460.776 231.158 461.336 232.809 460.728C233.189 460.617 233.527 460.394 233.778 460.09C234.03 459.785 234.184 459.412 234.219 459.019C234.115 455.803 235.625 453.245 238.077 452.494C239.712 451.992 244.068 451.7 249.17 459.789C258.251 474.185 270.592 484.632 293.188 497.05C293.298 497.11 293.386 497.201 293.442 497.313C293.498 497.424 293.518 497.549 293.5 497.673C293.482 497.796 293.427 497.91 293.342 498.001C293.257 498.092 293.146 498.156 293.024 498.182C290.128 498.836 287.169 499.177 284.199 499.198V499.198ZM217.898 477.598C238.604 482.335 257.464 489.124 268.253 493.92C274.202 496.562 280.344 499.289 291.138 497.316C269.265 485.138 257.136 474.716 248.131 460.442C244.905 455.326 241.283 452.792 238.44 453.664C236.525 454.251 235.352 456.354 235.451 459.018C235.452 459.045 235.451 459.071 235.449 459.098C235.398 459.727 235.161 460.327 234.768 460.822C234.374 461.317 233.841 461.684 233.237 461.877C230.843 462.759 227.367 461.726 224.971 459.419C222.981 457.504 218.797 451.403 216.049 443.18C216.045 443.167 216.041 443.153 216.037 443.139C212.851 430.825 210.788 417.008 209.731 400.897C209.051 390.515 205.729 384.584 203.586 383.689C203.116 383.492 202.928 383.653 202.857 383.714C202.343 384.154 202.032 385.804 202.845 389.006C203.95 394.084 205.025 399.215 206.046 404.274C210.224 425.005 213.866 446.48 216.867 468.105C216.901 468.238 216.906 468.377 216.879 468.511C216.852 468.646 216.795 468.773 216.711 468.882C217.132 471.876 217.531 474.805 217.898 477.596V477.598Z" fill="#1B1B1B"/>
<path d="M287.792 492.363C287.683 492.363 287.575 492.334 287.48 492.278C287.386 492.223 287.308 492.143 287.255 492.047C287.202 491.951 287.175 491.843 287.178 491.734C287.182 491.624 287.214 491.518 287.273 491.426C290.116 486.916 291.376 482.381 290.645 479.297C290.488 478.569 290.183 477.881 289.748 477.275C289.313 476.67 288.757 476.16 288.115 475.778C285.982 474.484 283.737 475.452 282.458 476.983C282.181 477.343 281.94 477.728 281.738 478.135C281.21 479.113 280.611 480.223 279.049 480.485C276.484 480.911 274.359 479.02 272.302 477.19C270.712 475.776 269.068 474.314 267.225 473.856C265.717 473.483 264.343 473.783 263.454 474.679C263.339 474.791 263.184 474.854 263.023 474.854C262.862 474.853 262.707 474.79 262.593 474.677C262.478 474.564 262.412 474.411 262.41 474.251C262.408 474.091 262.469 473.936 262.58 473.82C263.781 472.609 265.582 472.189 267.522 472.67C269.662 473.199 271.421 474.766 273.122 476.279C275.047 477.99 276.865 479.609 278.848 479.279C279.77 479.124 280.12 478.552 280.658 477.556C280.897 477.077 281.184 476.624 281.514 476.203C283.426 473.912 286.404 473.309 288.755 474.734C289.537 475.198 290.215 475.818 290.746 476.554C291.277 477.29 291.65 478.127 291.842 479.013C292.661 482.461 291.374 487.221 288.315 492.074C288.26 492.162 288.183 492.235 288.091 492.286C288 492.336 287.897 492.363 287.792 492.363V492.363Z" fill="#E9C046"/>
<path d="M400.414 474.724H400.41C400.247 474.724 400.091 474.659 399.976 474.544C399.862 474.429 399.797 474.274 399.798 474.112C399.798 473.95 399.863 473.795 399.978 473.68C400.093 473.566 400.249 473.501 400.412 473.501C400.575 473.501 400.731 473.566 400.846 473.68C400.961 473.795 401.026 473.95 401.026 474.112C401.026 474.274 400.962 474.429 400.847 474.544C400.732 474.659 400.577 474.724 400.414 474.724V474.724Z" fill="#1A1A1A"/>
<path d="M400.414 474.724H400.41C400.247 474.724 400.091 474.659 399.976 474.544C399.862 474.429 399.797 474.274 399.798 474.112C399.798 473.95 399.863 473.795 399.978 473.68C400.093 473.566 400.249 473.501 400.412 473.501C400.575 473.501 400.731 473.566 400.846 473.68C400.961 473.795 401.026 473.95 401.026 474.112C401.026 474.274 400.962 474.429 400.847 474.544C400.732 474.659 400.577 474.724 400.414 474.724V474.724Z" fill="#1A1A1A"/>
<path d="M206.062 426.938C205.925 426.938 205.792 426.894 205.683 426.813C205.573 426.731 205.493 426.617 205.454 426.487C205.416 426.356 205.421 426.217 205.468 426.089C205.516 425.962 205.604 425.853 205.719 425.78C205.834 425.706 205.969 425.672 206.106 425.682C206.242 425.691 206.371 425.745 206.474 425.834C206.578 425.923 206.649 426.043 206.678 426.176C206.707 426.309 206.692 426.447 206.635 426.571C206.598 426.639 206.552 426.702 206.498 426.758C206.441 426.815 206.373 426.861 206.298 426.891C206.223 426.922 206.143 426.938 206.062 426.938V426.938Z" fill="#1A1A1A"/>
<path d="M400.414 474.724H400.41C400.247 474.724 400.091 474.659 399.976 474.544C399.862 474.429 399.797 474.274 399.798 474.112C399.798 473.95 399.863 473.795 399.978 473.68C400.093 473.566 400.249 473.501 400.412 473.501C400.575 473.501 400.731 473.566 400.846 473.68C400.961 473.795 401.026 473.95 401.026 474.112C401.026 474.274 400.962 474.429 400.847 474.544C400.732 474.659 400.577 474.724 400.414 474.724V474.724Z" fill="#1A1A1A"/>
<path d="M355.746 422.75C355.605 422.751 355.468 422.704 355.357 422.616C355.247 422.528 355.171 422.405 355.141 422.267C355.111 422.13 355.13 421.986 355.195 421.861C355.259 421.735 355.365 421.636 355.494 421.579C355.588 421.537 355.69 421.52 355.792 421.527C355.894 421.535 355.993 421.568 356.079 421.623C356.165 421.678 356.236 421.754 356.285 421.843C356.334 421.932 356.36 422.033 356.361 422.134V422.139C356.361 422.301 356.296 422.457 356.181 422.571C356.066 422.686 355.909 422.75 355.746 422.75V422.75Z" fill="#1A1A1A"/>
<path d="M400.414 474.724H400.41C400.247 474.724 400.091 474.659 399.976 474.544C399.862 474.429 399.797 474.274 399.798 474.112C399.798 473.95 399.863 473.795 399.978 473.68C400.093 473.566 400.249 473.501 400.412 473.501C400.575 473.501 400.731 473.566 400.846 473.68C400.961 473.795 401.026 473.95 401.026 474.112C401.026 474.274 400.962 474.429 400.847 474.544C400.732 474.659 400.577 474.724 400.414 474.724V474.724Z" fill="#1A1A1A"/>
<path d="M206.062 426.938C205.925 426.938 205.792 426.894 205.683 426.813C205.573 426.731 205.493 426.617 205.454 426.487C205.416 426.356 205.421 426.217 205.468 426.089C205.516 425.962 205.604 425.853 205.719 425.78C205.834 425.706 205.969 425.672 206.106 425.682C206.242 425.691 206.371 425.745 206.474 425.834C206.578 425.923 206.649 426.043 206.678 426.176C206.707 426.309 206.692 426.447 206.635 426.571C206.598 426.639 206.552 426.702 206.498 426.758C206.441 426.815 206.373 426.861 206.298 426.891C206.223 426.922 206.143 426.938 206.062 426.938V426.938Z" fill="#1A1A1A"/>
<path d="M352.135 459.279C351.487 467.398 350.926 475.538 350.453 483.7C343.107 487.617 331.716 486.946 326.927 484.066C313.141 475.769 308.088 465.707 312.488 463.062C316.05 460.918 322.294 466.531 325.099 464C329.306 460.209 312.16 448.282 321.002 442.089C325.215 439.143 338.572 437.107 352.135 459.279V459.279Z" fill="#1B1B1B"/>
<path d="M337.981 487.04C333.447 487.04 329.19 486.144 326.609 484.589C315.422 477.856 310.328 470.25 310.328 466.032C310.328 464.471 310.966 463.261 312.171 462.538C314.184 461.327 316.743 462.216 319.217 463.076C321.442 463.85 323.543 464.579 324.689 463.546C326.061 462.309 324.145 459.395 322.117 456.31C318.958 451.506 315.027 445.528 320.65 441.588C322.609 440.218 326.344 439.096 330.956 440.054C336.253 441.154 344.319 445.327 352.66 458.961C352.727 459.071 352.758 459.2 352.747 459.328C352.103 467.4 351.538 475.612 351.068 483.735C351.062 483.84 351.029 483.941 350.973 484.029C350.916 484.117 350.838 484.19 350.745 484.239C347.098 486.183 342.408 487.04 337.981 487.04ZM314.468 463.175C313.886 463.156 313.311 463.297 312.806 463.583C312.393 463.838 312.059 464.201 311.838 464.632C311.618 465.063 311.521 465.546 311.557 466.028C311.557 470.038 316.944 477.339 327.244 483.539C331.902 486.34 342.923 486.831 349.86 483.314C350.324 475.362 350.877 467.327 351.507 459.425C343.433 446.301 335.742 442.293 330.706 441.247C326.48 440.37 323.106 441.363 321.358 442.585C317.04 445.61 319.375 449.903 323.146 455.637C325.47 459.172 327.666 462.51 325.515 464.449C323.829 465.97 321.28 465.084 318.814 464.227C317.311 463.709 315.775 463.175 314.468 463.175Z" fill="#1B1B1B"/>
<path d="M373.67 420.592C371.042 421.899 360.321 426.919 357.734 425.651C357.186 424.714 356.383 423.306 355.746 422.139V422.134C356.67 414.09 357.687 406.079 358.798 398.102C365.837 398.965 359.253 415.96 373.67 420.592Z" fill="#1B1B1B"/>
<path d="M358.826 426.445C358.359 426.465 357.893 426.381 357.462 426.198C357.354 426.145 357.264 426.061 357.203 425.957C356.656 425.019 355.844 423.602 355.206 422.428C355.157 422.339 355.132 422.239 355.132 422.137C355.132 422.114 355.132 422.086 355.136 422.063C356.064 413.979 357.091 405.888 358.189 398.017C358.211 397.858 358.295 397.714 358.423 397.616C358.551 397.519 358.713 397.475 358.873 397.494C362.249 397.908 362.878 401.376 363.607 405.39C364.578 410.748 365.788 417.416 373.858 420.009C373.974 420.047 374.076 420.117 374.152 420.213C374.227 420.308 374.273 420.424 374.282 420.545C374.291 420.666 374.264 420.787 374.204 420.892C374.144 420.998 374.053 421.083 373.944 421.138C372.739 421.739 363.138 426.445 358.826 426.445V426.445ZM358.16 425.163C360.161 425.806 367.235 422.987 372.107 420.67C364.564 417.554 363.32 410.692 362.398 405.607C361.702 401.771 361.186 399.441 359.316 398.835C358.262 406.431 357.274 414.224 356.378 422.014C356.954 423.069 357.65 424.288 358.162 425.165L358.16 425.163Z" fill="#1B1B1B"/>
<path d="M359.118 405.549C358.955 405.55 358.799 405.486 358.683 405.372C358.567 405.258 358.502 405.103 358.501 404.94C358.501 404.778 358.565 404.623 358.68 404.507C358.795 404.392 358.951 404.327 359.113 404.327H359.118C362.526 404.327 372.15 399.762 382.007 393.469C387.679 389.847 392.829 386.061 396.509 382.808C396.631 382.7 396.791 382.645 396.953 382.655C397.116 382.664 397.268 382.738 397.376 382.859C397.484 382.98 397.54 383.139 397.53 383.301C397.521 383.463 397.447 383.614 397.325 383.722C393.599 387.016 388.394 390.843 382.67 394.498C372.314 401.109 362.852 405.549 359.118 405.549V405.549Z" fill="#1A1A1A"/>
<path d="M237.045 322.17C232.716 317.049 228.43 309.859 220.957 307.053C227.727 303.665 234.83 300.98 242.153 299.042C238.729 300.201 242.109 303.073 244.057 304.868C247.896 308.406 244.153 311.492 239.329 306.929C236.693 304.432 234.898 306.35 236.597 308.258C239.793 311.853 241.33 313.5 244.991 319.099C248.277 324.135 241.951 327.97 237.045 322.17V322.17Z" fill="#1B1B1B"/>
<path d="M242.346 325.688C240.545 325.688 238.435 324.762 236.573 322.563C235.696 321.526 234.838 320.428 233.93 319.262C230.47 314.829 226.549 309.807 220.737 307.623C220.625 307.581 220.529 307.508 220.458 307.412C220.388 307.316 220.347 307.202 220.34 307.084C220.334 306.966 220.362 306.848 220.422 306.745C220.481 306.643 220.57 306.559 220.676 306.506C227.482 303.094 234.625 300.395 241.991 298.451C242.145 298.41 242.309 298.43 242.449 298.507C242.589 298.583 242.693 298.711 242.739 298.863C242.786 299.015 242.771 299.179 242.698 299.32C242.626 299.462 242.501 299.569 242.349 299.62C241.92 299.765 241.391 300.019 241.311 300.398C241.111 301.34 243.029 303.096 244.174 304.144L244.473 304.419C245.832 305.671 246.461 307.039 246.198 308.169C246.11 308.536 245.924 308.872 245.66 309.143C245.395 309.413 245.062 309.607 244.696 309.704C243.115 310.177 240.95 309.304 238.905 307.37C237.8 306.321 236.926 306.209 236.66 306.465C236.438 306.678 236.525 307.254 237.056 307.85L237.529 308.382C240.505 311.591 243.174 315.068 245.504 318.768C247.246 321.433 246.503 323.75 244.995 324.863C244.224 325.415 243.295 325.704 242.346 325.688V325.688ZM237.515 321.775C239.939 324.64 242.745 325.003 244.265 323.881C245.542 322.938 245.625 321.191 244.476 319.434C242.179 315.787 239.546 312.359 236.612 309.196L236.138 308.666C235.02 307.41 235.184 306.191 235.811 305.59C236.497 304.931 237.94 304.771 239.755 306.489C241.784 308.408 243.497 308.793 244.346 308.539C244.505 308.504 244.651 308.426 244.768 308.312C244.884 308.199 244.966 308.055 245.004 307.898C245.127 307.371 244.834 306.417 243.643 305.319L243.346 305.047C241.787 303.621 239.855 301.851 240.093 300.255C234.018 301.986 228.107 304.245 222.428 307.004C227.87 309.504 231.591 314.272 234.902 318.514C235.803 319.667 236.653 320.756 237.514 321.775L237.515 321.775Z" fill="#1B1B1B"/>
<path d="M294.917 349.492C294.121 349.497 293.34 349.287 292.655 348.884C291.022 347.921 290.198 345.966 290.502 343.782C290.806 341.608 292.181 339.702 293.514 337.859C295.021 335.772 296.444 333.801 295.905 331.872C295.655 330.977 295.048 330.693 293.997 330.266C293.492 330.079 293.007 329.842 292.549 329.558C290.059 327.911 289.141 325.028 290.317 322.547C291.654 319.728 294.45 318.335 298.406 318.521C306.009 318.877 316.158 325.056 318.151 330.544C318.875 332.538 318.479 334.301 317.005 335.644C315.954 336.6 314.712 336.892 313.508 337.175C313.024 337.289 312.523 337.407 312.045 337.567C306.171 339.539 303.525 342.703 301.399 345.247C300.576 346.326 299.629 347.305 298.577 348.164C297.532 348.987 296.248 349.452 294.917 349.492V349.492ZM297.742 319.727C295.455 319.727 292.71 320.361 291.426 323.069C290.359 325.32 291.562 327.439 293.228 328.539C293.617 328.778 294.03 328.977 294.46 329.134C295.492 329.553 296.663 330.029 297.087 331.544C297.783 334.039 296.119 336.344 294.51 338.573C293.265 340.296 291.979 342.078 291.717 343.953C291.478 345.664 292.062 347.116 293.28 347.834C294.562 348.591 296.269 348.348 297.839 347.185C298.81 346.38 299.687 345.468 300.451 344.466C302.677 341.804 305.447 338.492 311.651 336.41C312.183 336.231 312.712 336.107 313.224 335.986C314.321 335.728 315.359 335.484 316.172 334.743C317.282 333.732 317.55 332.495 316.991 330.961C315.169 325.945 305.409 320.074 298.343 319.744C298.152 319.732 297.949 319.727 297.744 319.727H297.742Z" fill="#E9C046"/>
<path d="M290.248 399.465C286.915 399.465 283.6 397.101 281 392.812C275.885 384.376 270.653 381.214 265.592 378.155C260.002 374.776 254.723 371.584 251.004 361.544C247.755 352.772 251.095 346.179 256.074 344.203C260.385 342.491 266.536 344.147 269.853 351.828C270.549 353.438 271.122 354.908 271.676 356.33C274.496 363.567 276.359 368.348 288.335 376.176C295.4 380.793 298.892 387.005 297.675 392.791C296.944 396.266 294.491 398.848 291.425 399.366C291.036 399.432 290.642 399.465 290.248 399.465ZM259.396 344.79C258.414 344.79 257.441 344.976 256.53 345.338C252.239 347.042 249.04 352.708 252.156 361.121C255.727 370.761 260.594 373.703 266.23 377.109C271.175 380.099 276.781 383.488 282.051 392.18C284.683 396.521 288.025 398.701 291.219 398.16C293.784 397.726 295.846 395.52 296.472 392.54C297.582 387.264 294.288 381.529 287.661 377.197C275.356 369.155 273.33 363.961 270.531 356.772C269.98 355.36 269.412 353.9 268.725 352.31C266.407 346.946 262.741 344.79 259.396 344.79V344.79Z" fill="#E9C046"/>
<path d="M332.5 433.227C326.071 433.227 318.485 426.665 316.682 419.418C315.911 416.32 315.684 410.633 322.82 407.337C330.972 403.57 335.194 399.634 335.368 395.642C335.544 391.617 331.673 387.312 323.863 382.845C315.841 378.256 311.643 371.426 312.633 364.572C313.245 360.344 315.881 356.863 319.045 356.107C321.502 355.519 323.846 356.596 325.648 359.138C333.591 370.346 338.061 374.28 344.437 374.28C347.527 374.28 351.063 373.357 355.661 371.891C361.041 370.176 364.159 372.442 365.539 373.946C368 376.628 368.683 380.936 367.201 384.421C365.649 388.068 362.077 390.238 357.401 390.375C345.764 390.716 344.815 399.919 343.502 412.655C343.225 415.341 342.939 418.117 342.53 420.986C341.066 431.278 335.911 433.065 332.969 433.213C332.813 433.223 332.656 433.227 332.5 433.227ZM320.316 357.176C319.984 357.176 319.653 357.216 319.331 357.294C316.644 357.936 314.39 361 313.849 364.744C313.408 367.788 313.562 375.545 324.474 381.783C332.715 386.496 336.793 391.176 336.594 395.693C336.395 400.243 332.058 404.415 323.335 408.444C318.639 410.614 316.698 414.406 317.872 419.122C319.563 425.917 327.008 432.292 332.904 431.992C337.396 431.764 340.303 427.898 341.312 420.813C341.716 417.967 342.002 415.203 342.277 412.529C343.603 399.676 344.65 389.524 357.363 389.151C363.079 388.984 365.27 385.816 366.067 383.942C367.369 380.883 366.778 377.11 364.63 374.769C362.59 372.546 359.537 371.937 356.034 373.054C341.703 377.624 336.749 376.923 324.641 359.841C323.406 358.097 321.898 357.177 320.316 357.177V357.176Z" fill="#E9C046"/>
<path d="M252.799 436.058C245.224 436.058 235.762 433.24 227.738 425.049C223.479 420.703 221.668 417.204 222.201 414.353C222.856 410.848 226.759 409.065 230.535 407.339C233.558 405.958 236.412 404.653 237.022 402.701C237.751 400.368 237.277 397.274 236.817 394.282C236.223 390.402 235.661 386.737 237.531 384.44C238.557 383.18 240.178 382.504 242.485 382.373L242.521 382.984L242.485 382.373C247.399 382.092 254.8 387.17 261.341 395.307C267.709 403.229 274.219 415.707 271.608 424.802C270.153 429.871 265.66 433.698 259.281 435.301C257.16 435.816 254.983 436.071 252.799 436.058V436.058ZM242.903 383.584C242.786 383.584 242.671 383.587 242.557 383.593C240.614 383.704 239.282 384.233 238.487 385.21C236.959 387.085 237.481 390.492 238.033 394.098C238.512 397.227 239.008 400.462 238.195 403.064C237.422 405.536 234.326 406.951 231.048 408.45C227.557 410.046 223.946 411.696 223.408 414.576C222.954 417.008 224.658 420.154 228.617 424.195C238.801 434.587 251.339 436.034 258.982 434.114C264.925 432.621 269.095 429.104 270.429 424.465C272.911 415.818 266.569 403.764 260.384 396.07C254.243 388.43 247.438 383.584 242.903 383.584V383.584Z" fill="#E9C046"/>
<path d="M281.858 312.586C267.162 312.586 250.307 308.714 247.076 297.841C247.03 297.686 247.047 297.519 247.125 297.376C247.203 297.234 247.334 297.128 247.491 297.082C247.647 297.036 247.815 297.053 247.958 297.131C248.101 297.208 248.208 297.339 248.254 297.495C251.293 307.72 267.606 311.364 281.858 311.364C293.13 311.364 312.223 307.567 315.468 297.377C315.517 297.223 315.626 297.094 315.77 297.019C315.915 296.945 316.083 296.93 316.239 296.979C316.394 297.028 316.523 297.137 316.598 297.281C316.673 297.425 316.688 297.592 316.639 297.747C313.171 308.635 293.939 312.586 281.858 312.586V312.586Z" fill="#1A1A1A"/>
<path d="M339.045 586.805C360.248 599.014 402.882 601.661 411.335 577.969C419.379 555.423 379.894 545.38 364.78 544.95C352.606 559.384 339.045 586.805 339.045 586.805Z" fill="white"/>
<path d="M376.204 596.573C362.484 596.573 348.149 592.753 338.739 587.333C338.604 587.256 338.504 587.13 338.459 586.982C338.414 586.833 338.427 586.674 338.496 586.535C338.632 586.259 352.229 558.881 364.31 544.556C364.369 544.485 364.444 544.429 364.529 544.391C364.613 544.354 364.705 544.335 364.798 544.338C376.335 544.664 401.451 550.459 410.039 562.94C413.232 567.584 413.865 572.709 411.915 578.173C409.385 585.265 403.825 590.429 395.391 593.518C389.587 595.644 382.969 596.573 376.204 596.573V596.573ZM339.854 586.56C353.748 594.332 377.943 598.605 394.966 592.371C403.042 589.414 408.356 584.5 410.758 577.765C412.569 572.69 411.986 567.935 409.025 563.632C400.759 551.619 376.507 545.98 365.059 545.57C354.034 558.75 341.774 582.745 339.854 586.56V586.56Z" fill="#1A1A1A"/>
<path d="M339.066 584.28C359.409 595.319 399.619 596.643 406.823 573.831C413.68 552.12 376.2 543.659 361.96 543.674C350.961 557.77 339.066 584.28 339.066 584.28Z" fill="#1B1B1B"/>
<path d="M372.26 592.6C359.971 592.6 347.309 589.449 338.772 584.816C338.637 584.742 338.534 584.62 338.485 584.475C338.435 584.329 338.443 584.17 338.506 584.03C338.625 583.764 350.557 557.29 361.476 543.298C361.54 543.221 361.62 543.16 361.71 543.119C361.801 543.078 361.9 543.059 361.999 543.062C372.833 543.062 396.538 547.852 405.081 559.425C408.304 563.792 409.089 568.7 407.411 574.013C405.241 580.889 400.122 585.988 392.206 589.168C386.248 591.561 379.315 592.6 372.26 592.6V592.6ZM339.863 584.011C353.129 590.987 375.948 594.38 391.745 588.035C399.306 584.998 404.182 580.157 406.238 573.648C407.791 568.727 407.069 564.186 404.09 560.15C395.875 549.021 372.992 544.361 362.261 544.286C352.327 557.132 341.579 580.261 339.863 584.011Z" fill="#1B1B1B"/>
<path d="M251.775 592.179C216.83 590.863 197.458 615.595 172.969 607.902C153.876 601.911 147.204 577.62 161.805 565.428C178.265 551.677 201.133 563.174 238.173 559.745L251.775 592.179Z" fill="#E9C046"/>
<path d="M251.775 592.179C246.665 591.988 241.549 592.342 236.514 593.234C231.682 582.776 228.237 571.737 226.265 560.395C230.065 560.329 234.031 560.129 238.173 559.745L251.775 592.179Z" fill="#1B1B1B"/>
<path d="M236.513 593.845C236.396 593.845 236.281 593.812 236.182 593.749C236.083 593.685 236.004 593.595 235.955 593.489C231.102 582.98 227.641 571.889 225.659 560.493C225.644 560.406 225.649 560.317 225.672 560.232C225.695 560.148 225.737 560.069 225.793 560.002C225.85 559.934 225.92 559.88 226 559.842C226.079 559.804 226.166 559.783 226.254 559.782C230.23 559.713 234.221 559.496 238.116 559.135C238.246 559.123 238.377 559.153 238.489 559.22C238.602 559.287 238.689 559.388 238.74 559.508L252.342 591.942C252.382 592.037 252.397 592.14 252.386 592.242C252.375 592.344 252.339 592.442 252.28 592.526C252.221 592.61 252.142 592.678 252.049 592.724C251.957 592.77 251.855 592.792 251.752 592.789C246.685 592.596 241.612 592.946 236.62 593.834C236.585 593.841 236.549 593.845 236.513 593.845V593.845ZM226.989 560.992C228.949 571.881 232.27 582.483 236.875 592.551C241.486 591.761 246.164 591.422 250.841 591.539L237.779 560.395C234.23 560.713 230.606 560.914 226.989 560.992H226.989Z" fill="#1B1B1B"/>
<path d="M215.798 599.435C200.446 605.517 187.586 612.495 172.969 607.902C153.876 601.911 147.204 577.62 161.805 565.428C173.314 555.809 188.002 558.543 208.416 559.885C203.968 567.311 216.984 564.74 220.018 576.113C223.133 587.802 208.621 593.044 215.798 599.435V599.435Z" fill="white"/>
<path d="M215.798 599.435C202.887 604.689 190.931 610.246 177.885 606.15C160.01 600.537 153.768 577.795 167.435 566.378C178.349 557.261 200.864 559.68 208.415 559.887C203.967 567.313 216.985 564.737 220.018 576.113C223.144 587.834 208.622 593.003 215.798 599.435Z" fill="#1B1B1B"/>
<path d="M187.217 608.183C183.989 608.19 180.779 607.701 177.7 606.733C173.23 605.343 169.216 602.783 166.081 599.32C162.945 595.857 160.802 591.618 159.877 587.048C158.252 578.916 160.929 571.013 167.04 565.909C176.855 557.711 195.295 558.636 205.201 559.133C206.461 559.197 207.549 559.251 208.431 559.276C208.538 559.279 208.642 559.309 208.733 559.365C208.825 559.42 208.9 559.499 208.952 559.592C209.003 559.686 209.029 559.791 209.028 559.897C209.026 560.004 208.996 560.108 208.941 560.2C208.23 561.387 207.98 562.319 208.177 563.049C208.487 564.198 209.93 564.998 211.756 566.011C214.827 567.714 219.035 570.045 220.611 575.955C222.224 582.004 219.323 586.412 216.992 589.954C214.346 593.975 213.11 596.203 216.208 598.98C216.285 599.049 216.343 599.137 216.377 599.234C216.41 599.332 216.419 599.437 216.401 599.538C216.383 599.64 216.34 599.736 216.275 599.816C216.21 599.897 216.125 599.96 216.029 599.999C215.2 600.336 214.375 600.674 213.553 601.012C204.64 604.672 196.09 608.183 187.217 608.183V608.183ZM195.685 560.063C186.308 560.063 174.635 561.161 167.829 566.846C161.982 571.731 159.522 579.007 161.081 586.811C161.964 591.166 164.007 595.204 166.996 598.504C169.984 601.804 173.809 604.243 178.07 605.567C190.067 609.334 201.245 604.744 213.085 599.884C213.625 599.663 214.165 599.441 214.708 599.219C211.64 595.858 213.745 592.657 215.965 589.285C218.277 585.773 220.897 581.791 219.425 576.269C217.982 570.863 214.199 568.765 211.159 567.08C209.162 565.972 207.436 565.016 206.991 563.367C206.763 562.521 206.901 561.565 207.412 560.464C206.735 560.436 205.975 560.397 205.14 560.355C202.613 560.229 199.321 560.063 195.685 560.063V560.063Z" fill="#1B1B1B"/>
<path d="M429.313 546.676C416.305 558.399 397.429 569.14 372.79 577.96C359.065 582.871 347.336 586.85 337.07 590.114C297.984 602.544 280.03 604.677 253.29 608.952C248.098 603.246 243.258 596.171 239.092 588.554C234.189 579.626 230.332 570.167 227.596 560.364C213.692 560.771 198.566 559.005 196.596 559.005C179.89 553.013 156.556 543.561 141.893 533.56V533.556C139.235 531.747 136.695 529.773 134.289 527.643C119.317 514.278 117.531 499.37 129.351 479.225C133.173 472.704 138.869 468.104 145.838 465.019C180.214 449.78 245.445 471.377 268.004 481.403C275.954 484.937 284.43 488.553 303.023 481.403C329.233 471.323 406.32 445.53 436.724 473.572C438.572 475.276 440.232 477.171 441.676 479.225C458.26 502.802 451.014 527.148 429.313 546.676V546.676Z" fill="#1B1B1B"/>
<path d="M134.381 527.595C118.357 513.534 118.238 498.173 129.353 479.226C130.043 478.044 131.015 476.638 131.056 476.618C134.666 471.543 139.971 467.59 145.838 465.018V465.023L153.883 480.522C134.471 494.322 128.182 514.403 134.381 527.595Z" fill="#1B1B1B"/>
<path d="M134.381 528.207C134.232 528.207 134.087 528.153 133.975 528.054C125.966 521.025 121.747 513.58 121.077 505.292C120.448 497.501 122.981 488.875 128.822 478.918C129.35 478.002 129.932 477.119 130.564 476.271L130.555 476.265C134.081 471.307 139.28 467.225 145.59 464.459C145.664 464.426 145.745 464.409 145.826 464.407C145.908 464.406 145.989 464.421 146.065 464.451C146.14 464.481 146.209 464.525 146.267 464.582C146.326 464.639 146.372 464.707 146.404 464.782L154.429 480.242C154.497 480.372 154.515 480.523 154.48 480.666C154.446 480.808 154.361 480.934 154.24 481.02C134.031 495.387 129.232 515.195 134.937 527.337C134.981 527.43 135 527.532 134.994 527.635C134.987 527.737 134.954 527.837 134.899 527.923C134.843 528.01 134.767 528.082 134.676 528.131C134.586 528.181 134.484 528.207 134.381 528.207V528.207ZM131.504 477.036C131.354 477.23 130.509 478.463 129.884 479.533C118.82 498.394 119.689 512.624 132.806 525.313C130.688 519.006 131.072 511.572 133.954 504.068C137.401 495.094 144.014 486.897 153.094 480.334L145.557 465.816C139.689 468.486 134.857 472.337 131.557 476.973C131.541 476.995 131.523 477.016 131.504 477.036V477.036Z" fill="#1B1B1B"/>
<path d="M310.614 515.916C307.922 517.158 305.241 518.414 302.572 519.685C298.798 521.48 295.042 523.301 291.304 525.146C288.69 523.676 286.304 521.836 284.22 519.685C269.007 504.093 256.6 506.979 263.013 512.97C270.04 519.537 252.682 521.936 231.813 506.521C222.733 499.814 213.741 492.389 188.997 486.58C226.821 492.489 274.077 501.71 310.614 515.916Z" fill="#171717"/>
<path d="M401.75 484.544C365.142 499.752 347.714 514.372 329.327 531.188C325.606 534.591 321.192 537.089 319.244 534.404C316.565 530.718 323.596 525.754 321.529 522.56C320.059 520.285 315.624 519.671 309.639 522.747C285.814 534.993 260.891 553.591 253.466 558.934C246.414 564.002 239.654 569.462 233.219 575.288C231.677 571.571 230.334 567.858 229.226 564.237C228.626 562.307 228.101 560.397 227.645 558.531C252.722 545.332 277.479 531.927 303.112 519.743C305.782 518.471 308.464 517.214 311.158 515.974C334.677 505.124 359.013 495.415 385.075 487.934C389.173 486.753 393.316 485.633 397.504 484.574L401.75 484.544Z" fill="#171717"/>
<path d="M441.676 479.225C440.232 477.171 438.572 475.276 436.724 473.573L425.784 492.293C432.263 496.851 439.74 501.682 442.157 508.727C445.07 517.223 442.23 531.999 432.418 543.746C451.777 524.589 457.373 501.54 441.676 479.225Z" fill="#1B1B1B"/>
<path d="M432.418 544.356C432.301 544.356 432.187 544.323 432.088 544.261C431.99 544.199 431.911 544.11 431.862 544.005C431.812 543.9 431.794 543.783 431.809 543.667C431.824 543.552 431.871 543.444 431.946 543.354C441.923 531.41 444.342 516.993 441.575 508.925C439.39 502.552 432.979 498.071 426.78 493.738C426.326 493.421 425.876 493.106 425.428 492.792C425.303 492.704 425.215 492.572 425.183 492.423C425.15 492.274 425.175 492.118 425.252 491.986L436.192 473.265C436.239 473.186 436.302 473.118 436.379 473.067C436.455 473.015 436.542 472.981 436.633 472.968C436.724 472.954 436.817 472.961 436.905 472.989C436.993 473.016 437.074 473.062 437.141 473.124C439.02 474.858 440.708 476.786 442.177 478.874C449.86 489.797 452.76 501.2 450.797 512.772C448.952 523.654 442.913 534.221 432.85 544.179C432.735 544.292 432.58 544.356 432.418 544.356V544.356ZM426.598 492.116L427.485 492.737C433.549 496.976 440.424 501.781 442.738 508.53C445.042 515.249 443.925 526.159 438.115 536.551C453.024 518.048 454.185 498.074 441.173 479.574C439.901 477.766 438.458 476.082 436.866 474.546L426.598 492.116Z" fill="#1B1B1B"/>
<path d="M253.291 609.563C253.205 609.563 253.12 609.545 253.042 609.511C252.963 609.476 252.893 609.425 252.836 609.362C241.429 596.832 230.848 576.439 226.508 558.615C226.476 558.483 226.489 558.344 226.545 558.22C226.601 558.096 226.697 557.994 226.818 557.931C231.357 555.541 235.888 553.148 240.412 550.751C256.904 542.025 273.959 533.003 291.032 524.597C297.04 521.621 304.264 518.169 310.356 515.359C310.37 515.352 310.384 515.346 310.397 515.341C342.142 500.699 369.242 490.894 398.256 483.551C398.413 483.515 398.578 483.541 398.715 483.624C398.853 483.707 398.952 483.841 398.992 483.996C399.031 484.151 399.008 484.315 398.927 484.454C398.846 484.592 398.714 484.693 398.559 484.736C369.611 492.062 342.566 501.849 310.875 516.468C310.861 516.474 310.847 516.48 310.834 516.485C304.76 519.288 297.565 522.728 291.578 525.692C274.519 534.09 257.473 543.108 240.988 551.83C236.603 554.15 232.212 556.47 227.816 558.788C232.153 576.209 242.431 596.005 253.533 608.307C270.797 606.226 287.909 603.045 304.764 598.785C304.782 598.779 304.799 598.774 304.817 598.769C319.256 595.137 334.519 590.536 352.851 584.287C352.864 584.282 352.877 584.278 352.89 584.275C379.493 575.213 412.588 563.932 434.109 541.147C452.723 521.432 455.232 499.566 441.173 479.576C430.2 463.974 407.309 458.428 373.134 463.092C344.033 467.064 314.563 477.618 303.244 481.972C284.235 489.284 275.478 485.393 267.752 481.96C255.979 476.728 234.11 468.973 211.226 464.334C183.275 458.669 160.774 459.09 146.146 465.549C146.125 465.562 146.103 465.573 146.08 465.583C140.119 468.143 134.961 472.185 131.557 476.97C131.541 476.992 131.523 477.014 131.505 477.034C131.354 477.229 130.507 478.464 129.884 479.532C118.286 499.301 119.798 513.983 134.787 527.135C134.802 527.149 134.817 527.163 134.831 527.178C149.071 539.672 176.29 551.059 196.627 558.414C196.703 558.441 196.772 558.483 196.832 558.537C196.891 558.591 196.94 558.657 196.974 558.73C197.008 558.802 197.027 558.881 197.031 558.961C197.034 559.041 197.022 559.122 196.995 559.197C196.967 559.272 196.925 559.342 196.87 559.401C196.816 559.46 196.75 559.508 196.677 559.542C196.604 559.576 196.525 559.596 196.444 559.599C196.364 559.603 196.283 559.59 196.208 559.563C175.75 552.164 148.346 540.693 133.974 528.056C133.959 528.043 133.944 528.028 133.93 528.013C118.46 514.41 116.885 499.265 128.822 478.916C129.353 478.002 129.934 477.118 130.564 476.27L130.555 476.263C134.076 471.315 139.393 467.133 145.533 464.484C145.551 464.474 145.569 464.465 145.587 464.457C164.362 456.132 191.778 459.143 211.47 463.134C234.453 467.791 256.422 475.584 268.252 480.841C275.76 484.177 284.269 487.958 302.801 480.829C328.791 470.833 415.65 441.152 442.18 478.873C456.607 499.388 454.059 521.801 435.004 541.983C413.266 564.999 379.99 576.334 353.253 585.442C353.241 585.446 353.227 585.45 353.215 585.454C334.864 591.712 319.582 596.317 305.119 599.956L305.111 599.925C303.391 600.521 294.703 602.487 289.882 603.499C281.347 605.293 268.082 607.8 253.364 609.56C253.34 609.563 253.315 609.564 253.291 609.563V609.563Z" fill="#1A1A1A"/>
<path d="M182.706 610.013C179.339 610.016 175.992 609.501 172.783 608.485C168.015 607.003 163.735 604.273 160.39 600.58C157.046 596.887 154.76 592.367 153.772 587.493C152.04 578.823 154.896 570.4 161.41 564.959C171.6 556.443 184.428 557.44 200.67 558.703C208.578 559.318 217.543 560.014 227.58 559.753C227.718 559.748 227.853 559.791 227.964 559.873C228.075 559.956 228.154 560.073 228.189 560.206C231.29 571.442 235.886 582.214 241.854 592.238C241.906 592.326 241.935 592.426 241.939 592.528C241.943 592.63 241.921 592.731 241.875 592.823C241.829 592.914 241.761 592.993 241.676 593.051C241.592 593.11 241.494 593.146 241.392 593.157C229.339 594.47 219.418 598.566 209.823 602.526C200.276 606.465 191.686 610.013 182.706 610.013V610.013ZM184.958 559.075C175.982 559.075 168.623 560.526 162.199 565.896C155.941 571.122 153.309 578.907 154.977 587.255C155.921 591.914 158.107 596.235 161.304 599.764C164.502 603.294 168.594 605.903 173.152 607.319C185.563 611.217 196.587 606.667 209.352 601.397C218.339 597.688 228.494 593.496 240.317 592.05C234.607 582.299 230.174 571.859 227.128 560.987C217.223 561.216 208.385 560.529 200.573 559.922C194.856 559.477 189.683 559.075 184.959 559.075H184.958Z" fill="#1A1A1A"/>
<path d="M337.07 590.114C297.984 602.545 280.03 604.677 253.29 608.952C249.376 604.581 245.861 599.871 242.788 594.878C266.455 601.298 279.951 598.006 284.143 597.369C289.686 596.529 291.362 593.025 286.463 591.404C278.04 588.615 284.437 582.261 295 585.512C304.42 588.411 322.689 593.731 337.07 590.114V590.114Z" fill="#1B1B1B"/>
<path d="M253.29 609.563C253.204 609.563 253.12 609.545 253.041 609.511C252.963 609.476 252.892 609.425 252.835 609.362C248.895 604.965 245.358 600.225 242.266 595.2C242.201 595.096 242.169 594.974 242.174 594.852C242.18 594.729 242.222 594.61 242.296 594.512C242.369 594.413 242.471 594.339 242.588 594.299C242.705 594.259 242.831 594.255 242.95 594.288C264.504 600.135 277.317 597.921 282.79 596.975C283.276 596.891 283.696 596.818 284.05 596.764C287.019 596.314 288.658 595.079 288.742 594.092C288.809 593.306 287.885 592.518 286.269 591.983C281.493 590.402 281.861 587.987 282.088 587.284C282.992 584.478 288.47 582.862 295.181 584.927C303.258 587.414 322.173 593.23 336.921 589.521C337.076 589.482 337.24 589.505 337.378 589.584C337.516 589.663 337.618 589.793 337.662 589.946C337.705 590.098 337.688 590.262 337.613 590.402C337.537 590.542 337.411 590.647 337.259 590.696C301.983 601.916 283.93 604.751 261.073 608.343C258.578 608.735 256.027 609.135 253.389 609.557C253.356 609.562 253.323 609.564 253.29 609.563V609.563ZM244.142 595.869C246.927 600.256 250.064 604.412 253.523 608.295C256.044 607.893 258.488 607.509 260.88 607.133C282.018 603.814 299.041 601.14 329.434 591.855C316.079 592.635 301.634 588.193 294.817 586.096C288.584 584.178 283.885 585.713 283.256 587.658C282.889 588.795 284.192 590.008 286.654 590.824C289.811 591.868 290.02 593.53 289.963 594.196C289.81 595.986 287.561 597.469 284.231 597.974C283.884 598.026 283.473 598.096 282.996 598.18C278.043 599.036 265.069 601.278 244.142 595.869V595.869Z" fill="#1B1B1B"/>
<path d="M257.55 499.84C231.3 493.523 204.091 488.796 180.472 485.273C180.043 485.22 179.623 485.159 179.225 485.085C167.365 482.959 168.074 471.642 190.997 474.806C214.454 478.043 239.53 489.369 257.55 499.84V499.84Z" fill="#1B1B1B"/>
<path d="M257.55 500.452C257.501 500.452 257.453 500.446 257.406 500.435C235.141 495.075 209.226 490.178 180.381 485.877C179.916 485.821 179.496 485.758 179.112 485.686C173.894 484.749 170.585 481.977 171.071 478.943C171.613 475.556 177.179 472.281 191.082 474.2C218.975 478.05 247.074 493.044 257.86 499.312C257.978 499.38 258.069 499.484 258.121 499.608C258.173 499.733 258.182 499.871 258.147 500.001C258.111 500.132 258.034 500.247 257.926 500.328C257.818 500.41 257.686 500.454 257.551 500.453L257.55 500.452ZM183.62 474.864C176.347 474.864 172.651 476.839 172.283 479.135C171.967 481.108 174.289 483.577 179.334 484.483C179.696 484.55 180.091 484.609 180.547 484.665C207.66 488.707 232.179 493.274 253.522 498.256C240.932 491.265 215.82 478.849 190.913 475.41C188.497 475.063 186.06 474.88 183.62 474.864V474.864Z" fill="#1B1B1B"/>
<path d="M398.015 485.007C398.002 485.007 397.989 485.011 397.974 485.011C397.973 485.011 397.972 485.012 397.971 485.013C397.97 485.014 397.969 485.015 397.969 485.016C378.326 488.123 355.632 496.123 332.8 506.087C361.077 486.491 382.712 475.496 399.077 475.239C410.821 475.058 410.478 483.817 398.015 485.007V485.007Z" fill="#1B1B1B"/>
<path d="M332.802 506.697C332.671 506.697 332.543 506.655 332.438 506.578C332.332 506.501 332.254 506.393 332.215 506.268C332.176 506.144 332.177 506.011 332.22 505.887C332.262 505.764 332.343 505.657 332.451 505.583C362.992 484.418 383.538 474.87 399.069 474.626C405.648 474.528 408.118 477.042 408.241 479.228C408.385 481.82 405.274 484.921 398.104 485.613C398.092 485.615 398.08 485.618 398.068 485.62C380.548 488.391 358.672 495.465 333.046 506.645C332.969 506.679 332.886 506.696 332.802 506.697V506.697ZM399.428 475.844C399.316 475.844 399.203 475.844 399.088 475.847C384.7 476.073 365.82 484.499 338.32 503.051C361.541 493.265 381.533 487.003 397.813 484.42C397.847 484.411 397.881 484.405 397.916 484.401C397.933 484.399 397.951 484.397 397.968 484.396C404.061 483.812 407.131 481.388 407.014 479.294C406.921 477.616 404.505 475.846 399.428 475.846V475.844Z" fill="#0E0D0D"/>
<path d="M310.829 516.471C310.753 516.471 310.678 516.457 310.607 516.43C278.908 504.168 234.858 493.847 179.674 485.753C179.513 485.729 179.368 485.642 179.271 485.512C179.174 485.382 179.132 485.219 179.156 485.059C179.18 484.898 179.267 484.754 179.398 484.657C179.528 484.56 179.692 484.519 179.854 484.543C235.126 492.65 279.269 502.995 311.052 515.291C311.186 515.342 311.298 515.438 311.368 515.563C311.438 515.688 311.462 515.833 311.435 515.974C311.409 516.114 311.334 516.241 311.223 516.332C311.112 516.423 310.973 516.473 310.829 516.473V516.471Z" fill="#0E0D0D"/>
</g>
<g clip-path="url(#clip2_129_1674)">
<path d="M402.32 226.529C402.605 226.529 402.871 226.35 402.965 226.068C403.084 225.717 402.891 225.336 402.534 225.219C402.379 225.168 386.785 219.948 373.5 206.362C361.269 193.855 348.54 171.466 357.359 135.831C357.448 135.471 357.225 135.108 356.859 135.019C356.496 134.932 356.126 135.152 356.038 135.512C347.065 171.768 360.07 194.581 372.561 207.335C386.079 221.139 401.948 226.442 402.107 226.494C402.177 226.517 402.249 226.529 402.32 226.529V226.529Z" fill="#030504"/>
<path d="M370.721 220.356C370.967 220.356 371.205 220.224 371.326 219.993C371.498 219.664 371.368 219.259 371.034 219.088C370.912 219.026 358.803 212.737 353.677 201.98C353.517 201.644 353.11 201.5 352.772 201.658C352.432 201.816 352.286 202.216 352.446 202.551C357.772 213.728 369.896 220.019 370.409 220.281C370.509 220.332 370.616 220.356 370.721 220.356V220.356Z" fill="#030504"/>
</g>
<path d="M459.999 809.917C459.999 796.608 455.066 779.985 440.727 765.887C433.119 758.405 426.994 755.223 422.002 756.159C415.867 757.31 412.746 764.168 409.724 770.802C407.307 776.112 405.023 781.126 401.606 782.197C397.521 783.479 392.106 782.646 386.868 781.838C380.075 780.794 373.659 779.807 369.639 783.092C367.433 784.895 366.25 787.742 366.019 791.797L367.09 791.859L366.019 791.797C365.528 800.429 374.417 813.432 388.662 824.923C402.529 836.112 424.373 847.548 440.294 842.961C449.168 840.405 455.867 832.511 458.673 821.304C459.576 817.577 460.021 813.753 459.999 809.917V809.917ZM368.14 792.531C368.14 792.325 368.145 792.123 368.156 791.923C368.35 788.509 369.276 786.168 370.986 784.772C374.268 782.087 380.234 783.004 386.545 783.974C392.022 784.817 397.686 785.687 402.241 784.258C406.569 782.901 409.046 777.462 411.669 771.703C414.463 765.569 417.351 759.225 422.393 758.281C426.651 757.483 432.159 760.476 439.231 767.432C457.424 785.323 459.957 807.351 456.595 820.778C453.982 831.22 447.825 838.547 439.704 840.89C424.567 845.25 403.467 834.108 389.997 823.242C376.624 812.453 368.14 800.497 368.14 792.531V792.531Z" fill="#030504"/>
<path d="M521.209 308.984C521.209 308.984 530.77 318.538 531.124 325.022C531.809 337.576 506.32 323.319 497.588 331.432C492.083 336.547 488.785 340.699 489.623 348.671C490.123 353.424 495.312 356.456 494.38 360.869C492.787 368.409 477.027 357.93 472.348 363.865C465.012 373.17 498.737 391.723 498.737 391.723" stroke="#030504" stroke-width="3"/>
<path d="M116.295 319.967C116.295 319.967 110.848 323.256 107.845 322.686C102.03 321.58 111.426 311.543 108.705 306.636C106.989 303.542 105.465 301.566 101.727 301.048C99.498 300.739 97.5262 302.768 95.6146 301.843C92.3492 300.264 98.9188 294.245 96.7351 291.436C93.3114 287.033 81.0222 300.348 81.0222 300.348" stroke="#030504" stroke-width="2"/>
<g clip-path="url(#clip3_129_1674)">
<path d="M77.3327 180.209C76.7996 180.066 76.3979 179.593 76.3734 179.013C76.3432 178.3 76.8976 177.698 77.6123 177.669C93.3872 177.02 96.353 157.482 96.1654 150.008C95.9247 140.435 97.9545 126.543 118.256 116.476C136.96 107.202 136.446 86.4348 136.439 86.2268C136.413 85.5147 136.972 84.9151 137.686 84.8908C138.395 84.8654 139 85.4222 139.028 86.1349C139.036 86.3593 139.638 108.763 119.411 118.792C100.644 128.098 98.5133 140.33 98.7542 149.947C99.0526 161.768 93.6965 179.595 77.7222 180.251C77.5864 180.258 77.4566 180.242 77.3327 180.209V180.209Z" fill="#030504"/>
<path d="M106.647 199.053C106.314 198.964 106.017 198.744 105.841 198.417C105.501 197.79 105.736 197.006 106.366 196.667C122.594 187.946 126.272 169.247 124.786 158.807C123.339 148.649 124.077 136.339 140.533 122.046C155.151 109.348 153.158 89.0688 153.138 88.8665C153.062 88.1571 153.576 87.5199 154.286 87.4438C154.994 87.3673 155.636 87.8818 155.713 88.5903C155.808 89.4751 157.893 110.396 142.234 123.997C126.756 137.443 125.933 148.499 127.349 158.446C128.938 169.603 124.99 189.597 107.594 198.943C107.294 199.106 106.954 199.136 106.647 199.053V199.053Z" fill="#030504"/>
<path d="M140.9 205.325C140.695 205.27 140.5 205.165 140.336 205.007C139.823 204.509 139.807 203.691 140.303 203.178C152.538 190.537 152.084 182.984 150.231 170.718L150.15 170.187C148.686 160.539 146.475 145.957 159.268 132.986C173.403 118.655 169.45 98.8706 169.406 98.6729C169.261 97.9742 169.708 97.2882 170.408 97.1426C171.102 96.9953 171.794 97.4417 171.942 98.1411C172.125 99.0039 176.246 119.459 161.116 134.8C149.23 146.851 151.242 160.117 152.712 169.803L152.793 170.336C154.711 183.025 155.222 191.487 142.168 204.977C141.829 205.327 141.341 205.443 140.9 205.325V205.325Z" fill="#030504"/>
</g>
<g clip-path="url(#clip4_129_1674)">
<path d="M455.018 642.67C455.107 642.35 455.394 642.111 455.743 642.099C456.173 642.085 456.532 642.422 456.546 642.852C456.851 652.358 468.603 654.25 473.106 654.178C478.874 654.084 487.23 655.382 493.184 667.665C498.668 678.981 511.179 678.784 511.305 678.781C511.734 678.77 512.092 679.11 512.103 679.54C512.114 679.967 511.775 680.328 511.346 680.341C511.211 680.345 497.713 680.586 491.782 668.348C486.279 656.994 478.923 655.644 473.129 655.737C466.007 655.853 455.299 652.53 454.99 642.905C454.987 642.823 454.997 642.745 455.018 642.67V642.67Z" fill="#030504"/>
<path d="M443.508 660.225C443.564 660.025 443.698 659.847 443.896 659.743C444.276 659.541 444.747 659.687 444.947 660.069C450.112 669.89 461.354 672.207 467.651 671.369C473.777 670.552 481.188 671.064 489.708 681.053C497.277 689.927 509.502 688.837 509.624 688.825C510.052 688.783 510.433 689.096 510.475 689.524C510.517 689.952 510.204 690.335 509.777 690.378C509.243 690.43 496.631 691.573 488.523 682.067C480.509 672.671 473.854 672.116 467.855 672.915C461.126 673.811 449.105 671.324 443.569 660.796C443.473 660.614 443.457 660.41 443.508 660.225V660.225Z" fill="#030504"/>
<path d="M439.545 680.822C439.579 680.699 439.644 680.583 439.739 680.484C440.042 680.178 440.535 680.173 440.841 680.474C448.389 687.913 452.941 687.68 460.339 686.63L460.659 686.585C466.478 685.755 475.273 684.502 483.017 692.278C491.572 700.87 503.51 698.596 503.629 698.571C504.051 698.487 504.462 698.76 504.546 699.182C504.631 699.601 504.358 700.016 503.936 700.101C503.415 700.207 491.073 702.578 481.914 693.381C474.72 686.157 466.719 687.297 460.877 688.13L460.555 688.176C452.901 689.262 447.802 689.524 439.747 681.588C439.539 681.382 439.471 681.087 439.545 680.822V680.822Z" fill="#030504"/>
</g>
<g clip-path="url(#clip5_129_1674)">
<path d="M568.498 101.475C572.207 105.732 575.258 110.453 577.406 115.466C584.849 132.835 581.137 151.921 566.956 169.208C566.244 170.077 564.963 170.204 564.096 169.494C563.229 168.782 563.103 167.503 563.815 166.634C580.695 146.058 578.491 128.324 573.669 117.071C566.208 99.6585 547.02 86.0201 528.044 84.6417C517.946 83.9083 508.053 84.4814 498.611 86.3144C502.236 96.6268 502.399 107.769 498.536 116.909C494.165 127.248 486.472 132.655 477.428 131.744C467.774 130.771 458.761 122.699 456.909 113.366C455.271 105.112 459.52 97.5775 468.566 92.6943C476.198 88.5737 484.415 85.4534 493.036 83.3702C491.245 79.555 488.923 75.9277 486.089 72.6992C476.184 61.3681 460.66 54.1313 444.558 53.3426C442.627 53.2483 440.683 53.2208 438.626 53.1914C429.258 53.0577 419.573 52.9197 412.072 46.2887C406.15 41.0532 403.163 34.8134 403.196 27.7436C403.278 9.70856 422.708 -9.2988 437.315 -22.0273C438.163 -22.7656 439.446 -22.6785 440.183 -21.8327C440.92 -20.9869 440.83 -19.7039 439.983 -18.9656C431.911 -11.9316 407.345 9.47389 407.261 27.7552C407.233 33.6867 409.689 38.7533 414.768 43.2424C421.141 48.8773 430.063 49.0046 438.691 49.1277C440.692 49.1561 442.761 49.1856 444.764 49.2841C461.944 50.1265 478.537 57.8787 489.151 70.0228C492.444 73.7822 495.09 78.0076 497.082 82.4745C507.103 80.4561 517.616 79.8091 528.344 80.5882C543.287 81.6742 558.353 89.8318 568.498 101.475ZM465.087 120.745C468.362 124.504 473.056 127.217 477.843 127.699C485.093 128.43 491.112 124.037 494.791 115.332C498.333 106.954 498.092 96.6711 494.618 87.1699C486.106 89.1704 478.002 92.2162 470.492 96.2696C463.019 100.304 459.612 106.092 460.897 112.569C461.482 115.514 462.995 118.344 465.087 120.745Z" fill="#030504"/>
</g>
</g>
<defs>
<clipPath id="clip0_129_1674">
<rect width="560" height="800" fill="white"/>
</clipPath>
<clipPath id="clip1_129_1674">
<rect width="466" height="421" fill="white" transform="translate(48 189)"/>
</clipPath>
<clipPath id="clip2_129_1674">
<rect width="51" height="92" fill="white" transform="matrix(-1 0 0 1 403 135)"/>
</clipPath>
<clipPath id="clip3_129_1674">
<rect width="76.4358" height="121.513" fill="white" transform="translate(104.45 74) rotate(15)"/>
</clipPath>
<clipPath id="clip4_129_1674">
<rect width="46.0411" height="73.1935" fill="white" transform="translate(518.843 659.58) rotate(105.516)"/>
</clipPath>
<clipPath id="clip5_129_1674">
<rect width="229.375" height="95.573" fill="white" transform="translate(529.687 201.721) rotate(-131.067)"/>
</clipPath>
</defs>
</svg>
