<svg
   width="20"
   height="24"
   viewBox="0 0 24 24"
   xmlns="http://www.w3.org/2000/svg">
  <path
     d="M 7.9999805 4.5 A 0.49999499 0.49999499 0 0 0 7.5 4.9999805 L 7.5 19.00002 A 0.49999499 0.49999499 0 0 0 7.9999805 19.5 A 0.49999499 0.49999499 0 0 0 8.5000195 19.00002 L 8.5000195 4.9999805 A 0.49999499 0.49999499 0 0 0 7.9999805 4.5 z M 16.00002 4.5 A 0.49999499 0.49999499 0 0 0 15.49998 4.9999805 L 15.49998 19.00002 A 0.49999499 0.49999499 0 0 0 16.00002 19.5 A 0.49999499 0.49999499 0 0 0 16.5 19.00002 L 16.5 4.9999805 A 0.49999499 0.49999499 0 0 0 16.00002 4.5 z " />
</svg>
