<svg xmlns="http://www.w3.org/2000/svg" width="20" height="24" viewBox="0 0 19 20" >
<path d="M2.69824 0.055674C1.5521 0.101019 0.5 1.0361 0.5 2.29591V17.7041C0.5 19.3839 2.37138 20.486 3.84082 19.6719L17.7451 11.9678C19.2568 11.1301 19.2568 8.86988 17.7451 8.03224L3.84082 0.328135C3.47346 0.124617 3.08029 0.0405589 2.69824 0.055674ZM2.71582 1.53321C2.84512 1.53266 2.98064 1.56618 3.11328 1.63966L17.0186 9.34376C17.5678 9.64811 17.5678 10.3519 17.0186 10.6563L3.11328 18.3604C2.58272 18.6543 2 18.3104 2 17.7041V2.29591C2 1.99278 2.14535 1.75582 2.35742 1.63087C2.46346 1.5684 2.58652 1.53377 2.71582 1.53321Z" fill="#000" />
</svg>