<svg xmlns="http://www.w3.org/2000/svg" width="20" height="20" viewBox="0 0 20 20" ><path d="M14.0125 -0.000601758C13.8859 0.0150232 13.775 0.0884606 13.7125 0.199398L10.7125 5.5744C10.6578 5.67284 10.6453 5.79002 10.6813 5.89784C10.7172 6.00409 10.7969 6.09159 10.9 6.1369C10.9 6.1369 11.2688 6.28846 11.725 6.4369L11.0375 7.6119C10.9187 7.44002 10.7812 7.2994 10.6375 7.1994C10.4375 7.06034 10.3219 7.04471 10.1625 6.9869C10.2656 6.72127 10.4 6.46502 10.4 6.1619C10.4 5.17127 9.775 4.34002 8.9125 4.0119C8.91719 3.95721 8.925 3.90877 8.925 3.8494C8.925 2.15721 7.58906 0.761898 5.9375 0.761898C4.81406 0.761898 3.85625 1.43065 3.35 2.3744C2.28906 2.5619 1.475 3.48846 1.475 4.6244C1.475 4.72284 1.48906 4.81659 1.5 4.9119C1.04063 5.45565 0.7375 6.1494 0.7375 6.9244C0.7375 7.22752 0.8 7.50096 0.875 7.7619C0.804688 7.98377 0.7375 8.21346 0.7375 8.4619C0.7375 8.66659 0.789062 8.85252 0.8375 9.0369C0.348438 9.46346 0 10.0556 0 10.7619C0 11.7588 0.629688 12.5885 1.5 12.9119C1.49531 12.9682 1.475 13.0166 1.475 13.0744C1.475 14.3432 2.48125 15.3869 3.725 15.3869C4.01406 15.3869 4.31406 15.4275 4.6375 15.3869C4.72813 15.376 4.81875 15.3322 4.9125 15.2994C5.03906 16.1385 5.075 16.8228 5.0125 17.2619C4.93438 17.8119 4.77656 18.0807 4.6 18.2744C4.42344 18.4682 4.21094 18.5697 3.9875 18.7369C3.875 18.8213 3.75781 18.94 3.675 19.1119C3.59219 19.2838 3.57813 19.49 3.625 19.6869C3.64063 19.84 3.74375 19.9713 3.88906 20.0228C4.03438 20.0744 4.19688 20.0369 4.30625 19.9291C4.41406 19.8197 4.45156 19.6572 4.4 19.5119C4.38281 19.4432 4.38906 19.4572 4.3875 19.4619C4.38594 19.4666 4.40781 19.4369 4.475 19.3869C4.60938 19.2869 4.90625 19.1197 5.1875 18.8119C5.46875 18.5041 5.71719 18.0541 5.8125 17.3744C5.875 16.9369 5.87188 16.3932 5.8 15.7369C5.98438 15.7947 6.1625 15.815 6.325 15.8119C6.43438 15.8103 6.54219 15.8025 6.6375 15.7869C6.70938 17.4478 7.12031 18.3682 7.575 18.9119C7.825 19.2103 8.08906 19.4041 8.2375 19.5244C8.3125 19.5853 8.35156 19.6228 8.3625 19.6369C8.40469 19.8275 8.57812 19.9588 8.77188 19.9494C8.96719 19.94 9.12656 19.7931 9.15 19.5994C9.15 19.4291 9.08438 19.2603 9 19.1494C8.91563 19.0385 8.825 18.9713 8.7375 18.8994C8.56094 18.7572 8.38438 18.6197 8.2 18.3994C7.88594 18.0244 7.59375 17.2385 7.5 15.8869C7.77656 15.9385 8.04219 15.9338 8.25 15.8869C8.34531 15.865 8.425 15.84 8.5 15.8119C8.71563 15.9432 9.075 16.126 9.625 16.3119C10.3797 16.5666 11.4922 16.8181 13.0375 16.8994L13.0625 17.0869C13.0641 17.0978 13.0609 17.101 13.0625 17.1119C13.1406 17.9057 13.0703 18.3791 12.9625 18.6119C12.8531 18.8463 12.7516 18.8869 12.5875 18.9244C12.4234 18.9619 12.2109 18.951 11.975 18.9619C11.8562 18.9666 11.7109 18.9525 11.5375 19.0869C11.3641 19.2213 11.3031 19.4994 11.3375 19.6744C11.3625 19.8588 11.5109 20.001 11.6953 20.0182C11.8797 20.0369 12.0531 19.9244 12.1125 19.7494C12.2609 19.751 12.475 19.7775 12.7625 19.7119C13.0938 19.6353 13.4812 19.3916 13.6875 18.9494C13.8938 18.5072 13.9547 17.9041 13.8625 17.0119C13.8625 17.0041 13.8625 16.9947 13.8625 16.9869L13.85 16.9244C13.9469 16.926 14.0391 16.9244 14.1375 16.9244C14.3875 16.9244 14.6203 16.9197 14.85 16.9119C14.85 17.0588 14.8547 17.1853 14.85 17.3994C14.8359 18.1525 14.8734 18.6353 14.9875 18.9994C15.1016 19.3635 15.3578 19.6275 15.625 19.7119C15.8922 19.7963 16.0969 19.7682 16.2125 19.7744C16.3281 19.7807 16.3219 19.7666 16.3875 19.8494C16.525 20.0228 16.7781 20.0494 16.95 19.9119C17.1234 19.7744 17.15 19.5213 17.0125 19.3494C16.7953 19.0791 16.4688 18.9869 16.25 18.9744C16.0312 18.9619 15.8953 18.9603 15.8625 18.9494C15.8297 18.9385 15.8156 18.9744 15.75 18.7619C15.6844 18.5494 15.6375 18.1244 15.65 17.4119C15.6547 17.1822 15.65 17.0385 15.65 16.8744C16.9688 16.7744 17.9125 16.5447 18.575 16.3119C19.0203 16.1557 19.3281 15.9994 19.5375 15.8744C19.7469 15.7494 19.875 15.6369 19.875 15.6369C20.0188 15.5041 20.0438 15.2869 19.9375 15.1244L17.725 11.7119C17.7313 11.7103 17.7437 11.7135 17.75 11.7119C18.1094 11.5681 18.3578 11.4291 18.525 11.3119C18.6922 11.1947 18.7875 11.0744 18.7875 11.0744C18.9016 10.9463 18.9219 10.7603 18.8375 10.6119L16.4125 6.4494C16.6328 6.37752 16.8406 6.30409 16.975 6.2494C17.0562 6.21659 17.1187 6.18221 17.1625 6.1619C17.1844 6.15252 17.2 6.14315 17.2125 6.1369C17.2188 6.13377 17.2219 6.13846 17.225 6.1369C17.2281 6.13534 17.2375 6.1369 17.2375 6.1369L17.05 5.7744L17.4 5.5744L14.4125 0.199398C14.3328 0.0572106 14.1734 -0.0209143 14.0125 -0.000601758ZM14.0625 1.2244L16.5 5.5744C16.3719 5.6244 16.2484 5.66659 16.0625 5.7244C15.5516 5.88221 14.85 6.0369 14.1 6.0369C12.95 6.0369 12.0734 5.73377 11.6375 5.5619L14.0625 1.2244ZM5.9375 1.5619C7.13906 1.5619 8.125 2.57284 8.125 3.8494C8.125 3.95565 8.10781 4.07752 8.0875 4.2119C8.05781 4.4244 8.20156 4.6244 8.4125 4.6619C9.08125 4.7869 9.6 5.40409 9.6 6.1619C9.6 6.47596 9.50313 6.75721 9.35 6.9994C9.28125 7.10409 9.26562 7.23377 9.30781 7.35252C9.35 7.46971 9.44375 7.5619 9.5625 7.5994C9.74375 7.6619 9.975 7.72284 10.175 7.8619C10.3672 7.99627 10.5 8.15096 10.525 8.4869L9.2875 10.6119C9.19375 10.7697 9.22031 10.9697 9.35 11.0994C9.35 11.0994 9.4875 11.2385 9.7375 11.3869C9.88438 11.4744 10.1828 11.576 10.425 11.6744L8.2375 15.0494C8.18594 15.0682 8.14375 15.0838 8.075 15.0994C7.85781 15.1478 7.58125 15.1525 7.2625 14.9494C7.25469 14.9447 7.24531 14.9432 7.2375 14.9369C7.23281 14.9322 7.22969 14.9291 7.225 14.9244C7.21719 14.9197 7.20781 14.915 7.2 14.9119C7.19531 14.9119 7.19219 14.9119 7.1875 14.9119C7.17969 14.9072 7.17031 14.9025 7.1625 14.8994C7.15781 14.8947 7.15469 14.8916 7.15 14.8869C7.14219 14.8869 7.13281 14.8869 7.125 14.8869C7.12031 14.8822 7.11719 14.8791 7.1125 14.8744C7.10469 14.8744 7.09531 14.8744 7.0875 14.8744C7.08281 14.8744 7.07969 14.8744 7.075 14.8744C7.06719 14.8744 7.05781 14.8744 7.05 14.8744C7.0375 14.8744 7.025 14.8744 7.0125 14.8744C6.975 14.8728 6.9375 14.8775 6.9 14.8869C6.8875 14.89 6.875 14.8947 6.8625 14.8994C6.8625 14.8994 6.6 15.0072 6.3125 15.0119C6.025 15.0166 5.80156 14.9931 5.6375 14.6244C5.63438 14.6119 5.62969 14.5994 5.625 14.5869C5.625 14.5822 5.625 14.5791 5.625 14.5744C5.62188 14.5603 5.61563 14.551 5.6125 14.5369C5.58281 14.3775 5.45938 14.251 5.3 14.2182C5.14063 14.1853 4.97813 14.2525 4.8875 14.3869C4.78438 14.5416 4.72344 14.5635 4.5375 14.5869C4.35156 14.6103 4.06563 14.5869 3.725 14.5869C2.92969 14.5869 2.275 13.9275 2.275 13.0744C2.275 12.9635 2.28906 12.8494 2.3125 12.7369C2.33438 12.6322 2.31406 12.5228 2.25469 12.4338C2.19688 12.3447 2.10469 12.2822 2 12.2619C1.32813 12.1385 0.8 11.5213 0.8 10.7619C0.8 10.2119 1.08125 9.74159 1.4875 9.4744C1.63594 9.37127 1.69844 9.18221 1.6375 9.0119C1.57344 8.8369 1.5375 8.65096 1.5375 8.4619C1.5375 8.2619 1.58125 8.06659 1.65 7.8869C1.67969 7.80252 1.67969 7.70877 1.65 7.6244C1.57813 7.39002 1.5375 7.1619 1.5375 6.9244C1.5375 6.27909 1.79375 5.70096 2.2 5.2869C2.29219 5.19471 2.33438 5.06502 2.3125 4.9369C2.29219 4.8369 2.275 4.73065 2.275 4.6244C2.275 3.80565 2.88594 3.1619 3.6375 3.1119C3.78594 3.10096 3.91563 3.01034 3.975 2.8744C4.32813 2.09471 5.06719 1.5619 5.9375 1.5619ZM12.5625 6.5994C13.0453 6.70721 13.5125 6.8369 14.1 6.8369C14.6562 6.8369 15.1484 6.74784 15.6 6.6494L17.9625 10.6994C17.8438 10.776 17.7047 10.8728 17.45 10.9744C16.8422 11.2166 15.7937 11.4744 14.1125 11.4744C12.7844 11.4744 11.8547 11.3119 11.2 11.1244C11.1828 11.1197 11.1547 11.1166 11.1375 11.1119C11.1141 11.101 11.0875 11.0931 11.0625 11.0869C10.6438 10.9556 10.3406 10.8041 10.1625 10.6994L12.5625 6.5994ZM11.2125 11.9369C11.9281 12.1213 12.8422 12.2744 14.1125 12.2744C15.3578 12.2744 16.2156 12.1166 16.9125 11.9369L19.05 15.2244C18.8859 15.3182 18.6719 15.4353 18.3125 15.5619C17.5188 15.8416 16.1984 16.1244 14.1375 16.1244C12.0766 16.1244 10.7063 15.8307 9.875 15.5494C9.28906 15.351 9.22969 15.2744 9.1 15.1869L11.2125 11.9369Z" /></svg>