<svg xmlns="http://www.w3.org/2000/svg" width="20" height="24" viewBox="0 0 22 24">
                  <path d="M11.0004 0.47998C5.4519 0.47998 0.92043 4.77028 0.92043 10.08C0.856824 10.0791 0.793674 10.0908 0.734649 10.1146C0.675625 10.1383 0.621903 10.1735 0.576605 10.2181C0.531308 10.2628 0.495338 10.316 0.470787 10.3747C0.446236 10.4334 0.433594 10.4964 0.433594 10.56C0.433594 10.6236 0.446236 10.6866 0.470787 10.7453C0.495338 10.8039 0.531308 10.8572 0.576605 10.9018C0.621903 10.9465 0.675625 10.9817 0.734649 11.0054C0.793674 11.0291 0.856824 11.0409 0.92043 11.04H1.88043C1.94404 11.0409 2.00719 11.0291 2.06621 11.0054C2.12524 10.9817 2.17896 10.9465 2.22426 10.9018C2.26955 10.8572 2.30552 10.8039 2.33007 10.7453C2.35462 10.6866 2.36727 10.6236 2.36727 10.56C2.36727 10.4964 2.35462 10.4334 2.33007 10.3747C2.30552 10.316 2.26955 10.2628 2.22426 10.2181C2.17896 10.1735 2.12524 10.1383 2.06621 10.1146C2.00719 10.0908 1.94404 10.0791 1.88043 10.08C1.88043 9.91324 1.89685 9.75035 1.90668 9.58592C1.97363 9.61 2.0451 9.6189 2.11592 9.61196C2.18673 9.60503 2.25512 9.58245 2.31613 9.54584C2.37714 9.50923 2.42926 9.45952 2.4687 9.4003C2.50814 9.34107 2.53392 9.27383 2.54418 9.20342C2.70278 8.30776 3.42671 6.80505 4.79699 5.57623C6.16728 4.34741 8.16847 3.35998 10.9517 3.35998C13.7349 3.35998 15.7361 4.34741 17.1064 5.57623C18.4767 6.80505 19.2006 8.30776 19.3592 9.20342C19.3707 9.2827 19.4018 9.35784 19.4498 9.422C19.4977 9.48616 19.561 9.5373 19.6338 9.57076C19.7066 9.60422 19.7866 9.61893 19.8665 9.61355C19.9464 9.60818 20.0237 9.58288 20.0914 9.53998C20.1031 9.71946 20.1204 9.89773 20.1204 10.08C20.0568 10.0791 19.9937 10.0908 19.9347 10.1146C19.8756 10.1383 19.8219 10.1735 19.7766 10.2181C19.7313 10.2628 19.6953 10.316 19.6708 10.3747C19.6462 10.4334 19.6336 10.4964 19.6336 10.56C19.6336 10.6236 19.6462 10.6866 19.6708 10.7453C19.6953 10.8039 19.7313 10.8572 19.7766 10.9018C19.8219 10.9465 19.8756 10.9817 19.9347 11.0054C19.9937 11.0291 20.0568 11.0409 20.1204 11.04H21.0804C21.144 11.0409 21.2072 11.0291 21.2662 11.0054C21.3252 10.9817 21.379 10.9465 21.4243 10.9018C21.4696 10.8572 21.5055 10.8039 21.5301 10.7453C21.5546 10.6866 21.5673 10.6236 21.5673 10.56C21.5673 10.4964 21.5546 10.4334 21.5301 10.3747C21.5055 10.316 21.4696 10.2628 21.4243 10.2181C21.379 10.1735 21.3252 10.1383 21.2662 10.1146C21.2072 10.0908 21.144 10.0791 21.0804 10.08C21.0804 4.77028 16.549 0.47998 11.0004 0.47998ZM11.0004 1.43998C14.9107 1.43998 18.2181 3.76325 19.5204 7.01811C19.0986 6.29404 18.5119 5.54723 17.7476 4.86186C16.2191 3.49111 13.9645 2.39998 10.9517 2.39998C7.93889 2.39998 5.6843 3.49111 4.15574 4.86186C3.55428 5.40123 3.06686 5.97857 2.67918 6.55311C4.10045 3.54398 7.27854 1.43998 11.0004 1.43998ZM0.92043 12V13.3462H0.951368C0.664895 13.6177 0.44043 14.0639 0.44043 14.6747C0.44043 15.1667 0.578073 15.8774 0.802305 16.7531C1.02654 17.6288 1.34281 18.641 1.71824 19.6106C2.09368 20.5802 2.52498 21.5046 3.00262 22.2178C3.48025 22.931 4.00733 23.52 4.76043 23.52C5.37357 23.52 5.81461 23.1402 6.03918 22.7503V22.7494C6.06026 22.7128 6.07016 22.6823 6.08606 22.6481C6.2838 22.7089 6.50363 22.7372 6.73949 22.7372C7.02194 22.7372 7.30006 22.6572 7.51387 22.4915C7.72767 22.3259 7.86177 22.0936 7.93668 21.8559C8.08649 21.3806 8.05007 20.8531 7.95356 20.2762C7.76052 19.1225 7.27091 17.7692 6.87449 16.7203C6.47725 15.6685 6.12135 14.6762 5.69512 13.9022C5.482 13.5152 5.25182 13.1784 4.96106 12.9187C4.67029 12.6591 4.29583 12.48 3.88668 12.48C3.36613 12.48 2.89718 12.7053 2.63699 13.0837C2.62622 13.0994 2.6208 13.1174 2.61074 13.1334C2.43266 13.0471 2.19275 12.96 1.88043 12.96V12H0.92043ZM20.1204 12V12.96C19.8081 12.96 19.5682 13.0471 19.3901 13.1334C19.3801 13.1174 19.3746 13.0994 19.3639 13.0837C19.1037 12.7053 18.6347 12.48 18.1142 12.48C17.705 12.48 17.3306 12.6591 17.0398 12.9187C16.749 13.1784 16.5189 13.5152 16.3057 13.9022C15.8795 14.6762 15.5236 15.6685 15.1264 16.7203C14.73 17.7692 14.2403 19.1225 14.0473 20.2762C13.9508 20.8531 13.9144 21.3806 14.0642 21.8559C14.1391 22.0936 14.2732 22.3259 14.487 22.4915C14.7008 22.6572 14.9789 22.7372 15.2614 22.7372C15.4969 22.7372 15.7163 22.7087 15.9139 22.6481C15.9299 22.6826 15.9403 22.7134 15.9617 22.7503C16.1863 23.1402 16.6273 23.52 17.2404 23.52C17.9935 23.52 18.5206 22.931 18.9982 22.2178C19.4759 21.5046 19.9072 20.5802 20.2826 19.6106C20.6581 18.641 20.9743 17.6288 21.1986 16.7531C21.4228 15.8774 21.5604 15.1667 21.5604 14.6747C21.5604 14.0639 21.336 13.6177 21.0495 13.3462H21.0804V12H20.1204ZM3.88668 13.44C4.03457 13.44 4.15563 13.4875 4.32074 13.635C4.48585 13.7824 4.67154 14.0336 4.85418 14.3653C5.21947 15.0286 5.57633 16.0004 5.97637 17.0597C6.36763 18.0949 6.83792 19.426 7.00668 20.4347C7.09106 20.939 7.08544 21.3619 7.02074 21.5672C6.98839 21.6698 6.95448 21.7101 6.92606 21.7322C6.89763 21.7542 6.85833 21.7772 6.73949 21.7772C6.39542 21.7772 6.30195 21.7301 6.21449 21.6525C6.12703 21.5748 6.01056 21.379 5.84981 21.0234C5.54352 20.346 5.00116 18.8189 4.54387 17.5894C4.31722 16.98 4.04965 16.245 3.82481 15.6019C3.60009 14.9591 3.41391 14.3824 3.37012 14.1928V14.1919C3.3095 13.9276 3.35352 13.7362 3.42824 13.6275C3.50309 13.5186 3.61091 13.44 3.88668 13.44ZM18.1142 13.44C18.39 13.44 18.4978 13.5186 18.5726 13.6275C18.6475 13.7363 18.6918 13.9278 18.6307 14.1928C18.587 14.3824 18.4008 14.9591 18.1761 15.6019C17.9512 16.245 17.6836 16.98 17.457 17.5894C16.9997 18.8188 16.4571 20.3456 16.1511 21.0234C15.9903 21.379 15.8738 21.5748 15.7864 21.6525C15.6989 21.7301 15.6054 21.7772 15.2614 21.7772C15.1425 21.7772 15.1032 21.7542 15.0748 21.7322C15.0464 21.7101 15.0125 21.6698 14.9801 21.5672C14.9154 21.3619 14.9098 20.939 14.9942 20.4347C15.1629 19.426 15.6332 18.0949 16.0245 17.0597C16.4245 16.0004 16.7814 15.0286 17.1467 14.3653C17.3293 14.0336 17.515 13.7824 17.6801 13.635C17.8452 13.4875 17.9663 13.44 18.1142 13.44ZM1.88043 13.92C2.06945 13.92 2.14079 13.9561 2.24512 14.0147C2.28247 14.0356 2.33716 14.073 2.39137 14.1075C2.39944 14.2073 2.41152 14.3078 2.43449 14.4075C2.43449 14.4078 2.43449 14.4081 2.43449 14.4084C2.50797 14.727 2.69021 15.2665 2.91824 15.9187C3.14628 16.571 3.41547 17.3099 3.64387 17.924C4.09665 19.1415 4.6238 20.6411 4.97512 21.4181C5.07725 21.644 5.17427 21.8488 5.29668 22.035C5.29211 22.0493 5.28281 22.0695 5.27887 22.0819C5.2479 22.1791 5.22983 22.2319 5.20762 22.2703C5.13163 22.4024 4.93996 22.56 4.76043 22.56C4.61353 22.56 4.21061 22.2973 3.79949 21.6834C3.38838 21.0696 2.97218 20.1923 2.61262 19.2637C2.25305 18.3351 1.94682 17.3527 1.73231 16.515C1.51779 15.6772 1.40043 14.9555 1.40043 14.6747C1.40043 14.2124 1.52754 14.0885 1.63199 14.0109C1.73644 13.9334 1.90014 13.92 1.88043 13.92ZM20.1204 13.92C20.1007 13.92 20.2644 13.9334 20.3689 14.0109C20.4733 14.0885 20.6004 14.2124 20.6004 14.6747C20.6004 14.9555 20.4831 15.6772 20.2686 16.515C20.054 17.3527 19.7478 18.3351 19.3882 19.2637C19.0287 20.1923 18.6125 21.0696 18.2014 21.6834C17.7903 22.2973 17.3873 22.56 17.2404 22.56C17.0609 22.56 16.8693 22.4024 16.7932 22.2703C16.771 22.2319 16.753 22.1791 16.722 22.0819C16.7181 22.0695 16.7088 22.0493 16.7042 22.035C16.8266 21.8488 16.9236 21.644 17.0257 21.4181C17.3763 20.6416 17.9042 19.1416 18.357 17.924C18.5854 17.3099 18.8546 16.571 19.0826 15.9187C19.3107 15.2665 19.4929 14.727 19.5664 14.4084C19.5664 14.4081 19.5664 14.4078 19.5664 14.4075C19.5893 14.3078 19.6014 14.2073 19.6095 14.1075C19.6637 14.073 19.7184 14.0356 19.7557 14.0147C19.8601 13.9561 19.9314 13.92 20.1204 13.92Z" />
                </svg>