<svg xmlns="http://www.w3.org/2000/svg" width="20" height="14" viewBox="0 0 20 14">
                                <path d="M5.86326 0.60383C5.69013 0.609264 5.51657 0.627075 5.34451 0.657737C4.88569 0.739501 4.4352 0.912309 4.02107 1.18117L3.30544 1.64524C2.71774 2.02688 2.27864 2.55432 2.00544 3.14758C1.98493 3.14951 1.96412 3.14938 1.94373 3.15227H1.94294C1.75699 3.17883 1.57619 3.24528 1.41404 3.35071C-0.00156889 4.27007 -0.428929 6.152 0.481226 7.54055C1.39142 8.92916 3.28901 9.29666 4.70466 8.37727C4.74672 8.34996 4.78281 8.3166 4.82107 8.28508V12.3999C4.82107 13.1684 5.45259 13.7999 6.22107 13.7999H6.62107C7.38955 13.7999 8.02107 13.1684 8.02107 12.3999V7.17571C9.63509 6.08744 10.0866 3.89546 9.01638 2.26321H9.0156L8.98826 2.22102C8.27851 1.13851 7.07518 0.565795 5.86326 0.60383ZM14.1367 0.60383C12.9248 0.565795 11.7215 1.13853 11.0117 2.22102L10.9844 2.26321H10.9836C9.91334 3.89546 10.3649 6.08744 11.9789 7.17571V12.3999C11.9789 13.1684 12.6104 13.7999 13.3789 13.7999H13.7789C14.5474 13.7999 15.1789 13.1684 15.1789 12.3999V8.28508C15.2171 8.3166 15.2532 8.34996 15.2953 8.37727C16.7109 9.29666 18.6085 8.92916 19.5187 7.54055C20.4289 6.152 20.0015 4.27007 18.5859 3.35071C18.4238 3.24528 18.243 3.17883 18.057 3.15227H18.0562C18.0358 3.14937 18.015 3.14951 17.9945 3.14758C17.7213 2.55435 17.2822 2.02688 16.6945 1.64524L15.9789 1.18117C15.5648 0.912309 15.1143 0.739501 14.6554 0.657737C14.4834 0.627075 14.3098 0.609264 14.1367 0.60383ZM6.02576 1.39836C6.92104 1.41207 7.79198 1.85474 8.31951 2.6593V2.66008L8.34763 2.70227C9.19089 3.98939 8.82915 5.69986 7.53513 6.54055L7.38201 6.63977L6.81951 7.00539C6.34418 7.31393 5.81229 7.45778 5.28591 7.45539C5.29385 7.39239 5.29784 7.3285 5.29607 7.26399C5.28081 6.71556 5.13096 5.85253 4.51638 4.91555C3.95274 4.05623 3.29846 3.58927 2.80857 3.33508C3.02187 2.93601 3.33186 2.58227 3.74138 2.31633L4.45701 1.85149C4.94251 1.53628 5.48859 1.39014 6.02576 1.39836ZM13.9742 1.39836C14.5114 1.39014 15.0574 1.53628 15.5429 1.85149L16.2586 2.31633C16.6681 2.58227 16.9781 2.93601 17.1914 3.33508C16.7015 3.58927 16.0472 4.05623 15.4836 4.91555C14.869 5.85253 14.7191 6.71556 14.7039 7.26399C14.7021 7.32823 14.7062 7.39186 14.714 7.45461C14.1877 7.457 13.6558 7.31393 13.1804 7.00539L12.6179 6.63977L12.4648 6.54055H12.464C11.1704 5.69974 10.8092 3.98923 11.6523 2.70227L11.6531 2.70149L11.6804 2.66008V2.6593C12.208 1.85474 13.0789 1.41207 13.9742 1.39836ZM6.67966 2.22961C6.56437 2.22145 6.44581 2.24642 6.33826 2.30852L5.29841 2.90852C5.01161 3.07412 4.91328 3.44125 5.07888 3.72805C5.24448 4.01485 5.61161 4.11318 5.89841 3.94758L6.93826 3.34758C7.22506 3.18198 7.32339 2.81485 7.15779 2.52805C7.05429 2.3488 6.87182 2.24322 6.67966 2.22961ZM13.3203 2.22961C13.1281 2.24322 12.9457 2.3488 12.8422 2.52805C12.6766 2.81485 12.7749 3.18198 13.0617 3.34758L14.1015 3.94758C14.3883 4.11318 14.7555 4.01485 14.9211 3.72805C15.0867 3.44125 14.9883 3.07412 14.7015 2.90852L13.6617 2.30852C13.5541 2.24642 13.4356 2.22145 13.3203 2.22961ZM2.05544 3.94367C2.15001 3.93026 2.24566 3.94415 2.33044 3.9843H2.33123C2.72151 4.16819 3.32214 4.55465 3.84685 5.35461C4.37147 6.15443 4.48413 6.85669 4.49607 7.28586C4.49887 7.38806 4.46868 7.48582 4.40935 7.57102C4.37312 7.62294 4.32668 7.66905 4.26951 7.70617C3.20676 8.39638 1.81658 8.11847 1.14998 7.10149C0.48333 6.08444 0.787183 4.71203 1.84998 4.0218C1.91401 3.98016 1.98405 3.95398 2.05544 3.94367ZM17.8031 3.94367C17.8493 3.93687 17.8966 3.93706 17.9437 3.94367C18.0154 3.95391 18.0857 3.98003 18.15 4.0218C19.2128 4.71203 19.5166 6.08444 18.85 7.10149C18.1834 8.11847 16.7932 8.39638 15.7304 7.70617C15.6733 7.66905 15.6268 7.62294 15.5906 7.57102C15.5313 7.48582 15.5011 7.38806 15.5039 7.28586C15.5158 6.85669 15.6285 6.15443 16.1531 5.35461C16.6778 4.55465 17.2784 4.16819 17.6687 3.9843H17.6695C17.7118 3.96429 17.7569 3.95048 17.8031 3.94367ZM2.01951 5.4218C1.92048 5.42359 1.82564 5.46204 1.75334 5.52973C1.68104 5.59741 1.63641 5.68951 1.6281 5.78821C1.59915 6.08549 1.66547 6.39728 1.83982 6.66477V6.66555C2.01442 6.93255 2.27361 7.11937 2.55779 7.21242C2.60816 7.23057 2.66166 7.23841 2.71512 7.2355C2.76858 7.23258 2.82091 7.21897 2.86901 7.19546C2.91711 7.17195 2.96 7.13903 2.99514 7.09864C3.03028 7.05825 3.05696 7.01121 3.07359 6.96032C3.09022 6.90944 3.09647 6.85573 3.09196 6.80238C3.08746 6.74903 3.07229 6.69713 3.04736 6.64975C3.02242 6.60237 2.98823 6.56048 2.94682 6.52656C2.9054 6.49264 2.85759 6.46737 2.80623 6.45227C2.68261 6.41179 2.58191 6.33754 2.51013 6.22805C2.43888 6.11874 2.41154 5.99546 2.42419 5.86555C2.43041 5.80907 2.42453 5.75191 2.40693 5.69789C2.38933 5.64386 2.36043 5.5942 2.32214 5.55222C2.28385 5.51023 2.23706 5.47688 2.18488 5.4544C2.13269 5.43191 2.07632 5.4208 2.01951 5.4218ZM17.9687 5.4218C17.9129 5.42245 17.8578 5.43478 17.8071 5.458C17.7563 5.48121 17.7109 5.5148 17.6739 5.5566C17.6369 5.59839 17.609 5.64747 17.5921 5.70068C17.5752 5.75389 17.5697 5.81005 17.5758 5.86555C17.5884 5.99546 17.5611 6.11874 17.4898 6.22805C17.418 6.33754 17.3173 6.41179 17.1937 6.45227C17.1424 6.46737 17.0946 6.49264 17.0531 6.52656C17.0117 6.56048 16.9775 6.60237 16.9526 6.64975C16.9277 6.69713 16.9125 6.74903 16.908 6.80238C16.9035 6.85573 16.9097 6.90944 16.9264 6.96032C16.943 7.01121 16.9697 7.05825 17.0048 7.09864C17.04 7.13903 17.0828 7.17195 17.1309 7.19546C17.179 7.21897 17.2314 7.23258 17.2848 7.2355C17.3383 7.23841 17.3918 7.23057 17.4422 7.21242C17.7263 7.11937 17.9855 6.93255 18.1601 6.66555V6.66477C18.3345 6.39728 18.4008 6.08549 18.3719 5.78821C18.3634 5.68751 18.3171 5.59375 18.2423 5.52578C18.1675 5.45781 18.0698 5.42066 17.9687 5.4218ZM7.22107 7.69602V12.3999C7.22107 12.7362 6.95739 12.9999 6.62107 12.9999H6.22107C5.88475 12.9999 5.62107 12.7362 5.62107 12.3999V8.23977C6.17397 8.18959 6.72271 8.01196 7.22107 7.69602ZM12.7789 7.69602C13.2772 8.01196 13.826 8.18959 14.3789 8.23977V12.3999C14.3789 12.7362 14.1152 12.9999 13.7789 12.9999H13.3789C13.0426 12.9999 12.7789 12.7362 12.7789 12.3999V7.69602Z" />
                              </svg>