<svg xmlns="http://www.w3.org/2000/svg" width="18" height="18" viewBox="0 0 18 18"><path d="M8.96183 0.5875C8.94464 0.590625 8.92745 0.595313 8.91183 0.6C8.72589 0.642188 8.59464 0.809376 8.59933 1V3.4C8.59776 3.54375 8.67276 3.67813 8.79776 3.75156C8.92276 3.82344 9.07589 3.82344 9.20089 3.75156C9.32589 3.67813 9.40089 3.54375 9.39933 3.4V1C9.40401 0.884376 9.35714 0.773438 9.27433 0.695313C9.18995 0.615625 9.07589 0.576563 8.96183 0.5875ZM3.26183 2.9375C3.11183 2.96406 2.99151 3.07344 2.94933 3.21875C2.90714 3.36563 2.95089 3.52188 3.06183 3.625L4.76183 5.325C4.8587 5.44375 5.01339 5.49844 5.16339 5.46406C5.31183 5.42969 5.42901 5.3125 5.46339 5.16406C5.49776 5.01406 5.44308 4.85938 5.32433 4.7625L3.62433 3.0625C3.54151 2.97344 3.4212 2.92813 3.29933 2.9375C3.28683 2.9375 3.27433 2.9375 3.26183 2.9375ZM14.6118 2.9375C14.5212 2.95 14.4368 2.99531 14.3743 3.0625L12.6743 4.7625C12.5556 4.85938 12.5009 5.01406 12.5353 5.16406C12.5696 5.3125 12.6868 5.42969 12.8353 5.46406C12.9853 5.49844 13.14 5.44375 13.2368 5.325L14.9368 3.625C15.0618 3.50625 15.0978 3.32031 15.0243 3.16406C14.9493 3.00625 14.7837 2.91563 14.6118 2.9375ZM8.96183 5C8.94933 5.00313 8.93683 5.00781 8.92433 5.0125C8.89933 5.01406 8.87433 5.01875 8.84933 5.025C8.84464 5.02969 8.84151 5.03281 8.83683 5.0375C6.71495 5.12813 4.99933 6.85625 4.99933 9C4.99933 11.2016 6.79776 13 8.99933 13C11.2009 13 12.9993 11.2016 12.9993 9C12.9993 6.86406 11.2978 5.14219 9.18683 5.0375C9.17276 5.0375 9.16339 5.025 9.14933 5.025C9.1087 5.00938 9.06651 5.00156 9.02433 5C9.01651 5 9.00714 5 8.99933 5C8.98683 5 8.97433 5 8.96183 5ZM8.97433 5.8C8.98214 5.8 8.99151 5.8 8.99933 5.8C9.01183 5.8 9.02433 5.8 9.03683 5.8C10.7868 5.82031 12.1993 7.24531 12.1993 9C12.1993 10.7688 10.7681 12.2 8.99933 12.2C7.23214 12.2 5.79933 10.7688 5.79933 9C5.79933 7.24063 7.21808 5.81406 8.97433 5.8ZM0.886826 8.6C0.666514 8.63125 0.511826 8.83594 0.543076 9.05625C0.574326 9.27656 0.779014 9.43125 0.999326 9.4H3.39933C3.54308 9.40156 3.67745 9.32656 3.75089 9.20156C3.82276 9.07656 3.82276 8.92344 3.75089 8.79844C3.67745 8.67344 3.54308 8.59844 3.39933 8.6H0.999326C0.986826 8.6 0.974326 8.6 0.961826 8.6C0.949326 8.6 0.936826 8.6 0.924326 8.6C0.911826 8.6 0.899326 8.6 0.886826 8.6ZM14.4868 8.6C14.2665 8.63125 14.1118 8.83594 14.1431 9.05625C14.1743 9.27656 14.379 9.43125 14.5993 9.4H16.9993C17.1431 9.40156 17.2775 9.32656 17.3509 9.20156C17.4228 9.07656 17.4228 8.92344 17.3509 8.79844C17.2775 8.67344 17.1431 8.59844 16.9993 8.6H14.5993C14.5868 8.6 14.5743 8.6 14.5618 8.6C14.5493 8.6 14.5368 8.6 14.5243 8.6C14.5118 8.6 14.4993 8.6 14.4868 8.6ZM4.99933 12.55C4.9087 12.5625 4.82433 12.6078 4.76183 12.675L3.06183 14.375C2.94308 14.4719 2.88839 14.6266 2.92276 14.7766C2.95714 14.925 3.07433 15.0422 3.22276 15.0766C3.37276 15.1109 3.52745 15.0563 3.62433 14.9375L5.32433 13.2375C5.44308 13.1234 5.47901 12.9469 5.41495 12.7953C5.35245 12.6438 5.20089 12.5469 5.03683 12.55C5.02433 12.55 5.01183 12.55 4.99933 12.55ZM12.8743 12.55C12.7243 12.5766 12.604 12.6859 12.5618 12.8313C12.5196 12.9781 12.5634 13.1344 12.6743 13.2375L14.3743 14.9375C14.4712 15.0563 14.6259 15.1109 14.7759 15.0766C14.9243 15.0422 15.0415 14.925 15.0759 14.7766C15.1103 14.6266 15.0556 14.4719 14.9368 14.375L13.2368 12.675C13.1618 12.5953 13.0587 12.5516 12.9493 12.55C12.9368 12.55 12.9243 12.55 12.9118 12.55C12.8993 12.55 12.8868 12.55 12.8743 12.55ZM8.96183 14.1875C8.94464 14.1906 8.92745 14.1953 8.91183 14.2C8.72589 14.2422 8.59464 14.4094 8.59933 14.6V17C8.59776 17.1438 8.67276 17.2781 8.79776 17.3516C8.92276 17.4234 9.07589 17.4234 9.20089 17.3516C9.32589 17.2781 9.40089 17.1438 9.39933 17V14.6C9.40401 14.4844 9.35714 14.3734 9.27433 14.2953C9.18995 14.2156 9.07589 14.1766 8.96183 14.1875Z" /></svg>