<svg xmlns="http://www.w3.org/2000/svg" width="20" height="20" viewBox="0 0 20 20" fill="none">
    <g clip-path="url(#clip0_143_324)">
    <path d="M5.16262 2.38755C5.14543 2.39067 5.12825 2.39536 5.11262 2.40005C4.92668 2.44224 4.79543 2.60942 4.80012 2.80005V17.2C4.79856 17.3438 4.87356 17.4782 4.99856 17.5516C5.12356 17.6235 5.27668 17.6235 5.40168 17.5516C5.52668 17.4782 5.60168 17.3438 5.60012 17.2V2.80005C5.60481 2.68442 5.55793 2.57349 5.47512 2.49536C5.39075 2.41567 5.27668 2.37661 5.16262 2.38755ZM14.7626 2.38755C14.7454 2.39067 14.7282 2.39536 14.7126 2.40005C14.5267 2.44224 14.3954 2.60942 14.4001 2.80005V17.2C14.3986 17.3438 14.4736 17.4782 14.5986 17.5516C14.7236 17.6235 14.8767 17.6235 15.0017 17.5516C15.1267 17.4782 15.2017 17.3438 15.2001 17.2V2.80005C15.2048 2.68442 15.1579 2.57349 15.0751 2.49536C14.9907 2.41567 14.8767 2.37661 14.7626 2.38755ZM2.76262 5.98755C2.74543 5.99067 2.72825 5.99536 2.71262 6.00005C2.52668 6.04224 2.39543 6.20942 2.40012 6.40005V13.6C2.39856 13.7438 2.47356 13.8782 2.59856 13.9516C2.72356 14.0235 2.87668 14.0235 3.00168 13.9516C3.12668 13.8782 3.20168 13.7438 3.20012 13.6V6.40005C3.20481 6.28442 3.15793 6.17349 3.07512 6.09536C2.99075 6.01567 2.87668 5.97661 2.76262 5.98755ZM17.1626 5.98755C17.1454 5.99067 17.1282 5.99536 17.1126 6.00005C16.9267 6.04224 16.7954 6.20942 16.8001 6.40005V13.6C16.7986 13.7438 16.8736 13.8782 16.9986 13.9516C17.1236 14.0235 17.2767 14.0235 17.4017 13.9516C17.5267 13.8782 17.6017 13.7438 17.6001 13.6V6.40005C17.6048 6.28442 17.5579 6.17349 17.4751 6.09536C17.3907 6.01567 17.2767 5.97661 17.1626 5.98755ZM7.56262 6.38755C7.54543 6.39067 7.52825 6.39536 7.51262 6.40005C7.32668 6.44224 7.19543 6.60942 7.20012 6.80005V10V13.2C7.19856 13.3438 7.27356 13.4782 7.39856 13.5516C7.52356 13.6235 7.67668 13.6235 7.80168 13.5516C7.92668 13.4782 8.00168 13.3438 8.00012 13.2V6.80005C8.00481 6.68442 7.95793 6.57349 7.87512 6.49536C7.79075 6.41567 7.67668 6.37661 7.56262 6.38755ZM12.3626 6.38755C12.3454 6.39067 12.3282 6.39536 12.3126 6.40005C12.1267 6.44224 11.9954 6.60942 12.0001 6.80005V13.2C11.9986 13.3438 12.0736 13.4782 12.1986 13.5516C12.3236 13.6235 12.4767 13.6235 12.6017 13.5516C12.7267 13.4782 12.8017 13.3438 12.8001 13.2V6.80005C12.8048 6.68442 12.7579 6.57349 12.6751 6.49536C12.5907 6.41567 12.4767 6.37661 12.3626 6.38755ZM0.362622 8.38755C0.345434 8.39067 0.328247 8.39536 0.312622 8.40005C0.126684 8.44224 -0.00456587 8.60942 0.000121649 8.80005V11.2C-0.00144085 11.3438 0.0735592 11.4782 0.198559 11.5516C0.323559 11.6235 0.476684 11.6235 0.601684 11.5516C0.726684 11.4782 0.801684 11.3438 0.800122 11.2V8.80005C0.804809 8.68442 0.757934 8.57349 0.675122 8.49536C0.590747 8.41567 0.476684 8.37661 0.362622 8.38755ZM9.96262 8.38755C9.94543 8.39067 9.92825 8.39536 9.91262 8.40005C9.72668 8.44224 9.59543 8.60942 9.60012 8.80005V11.2C9.59856 11.3438 9.67356 11.4782 9.79856 11.5516C9.92356 11.6235 10.0767 11.6235 10.2017 11.5516C10.3267 11.4782 10.4017 11.3438 10.4001 11.2V8.80005C10.4048 8.68442 10.3579 8.57349 10.2751 8.49536C10.1907 8.41567 10.0767 8.37661 9.96262 8.38755ZM19.5626 8.38755C19.5454 8.39067 19.5282 8.39536 19.5126 8.40005C19.3267 8.44224 19.1954 8.60942 19.2001 8.80005V11.2C19.1986 11.3438 19.2736 11.4782 19.3986 11.5516C19.5236 11.6235 19.6767 11.6235 19.8017 11.5516C19.9267 11.4782 20.0017 11.3438 20.0001 11.2V8.80005C20.0048 8.68442 19.9579 8.57349 19.8751 8.49536C19.7907 8.41567 19.6767 8.37661 19.5626 8.38755Z" fill="#030504" fill-opacity="0.8"/><rect x="1.82617" y="0.907189" width="24.343" height="1.3" rx="0.65" transform="rotate(45 1.82617 0.907189)" fill="#333534" stroke="white" stroke-width="0.5"/>
    </g><defs><clipPath id="clip0_143_324"><rect width="20" height="20" fill="white"/></clipPath></defs>
</svg>