            <svg xmlns="http://www.w3.org/2000/svg" width="20" height="20" viewBox="0 0 20 20" fill="none">
              <path d="M2.69965 0.800019C2.65903 0.806269 2.61215 0.826581 2.54965 0.862519C2.48715 0.898457 2.41528 0.970331 2.37465 1.06252C2.33403 1.15471 2.32622 1.25002 2.33715 1.31252C2.38247 1.56252 2.46215 1.55783 2.52465 1.62502C2.64809 1.75939 2.82465 1.92658 3.06215 2.17502C3.53559 2.67189 4.23247 3.47814 4.96215 4.77502C6.04341 6.69846 7.19184 9.68752 7.71215 14.2375C7.08559 12.7875 6.25434 11.5813 5.39965 10.6125C4.52465 9.62189 3.62778 8.88596 2.88715 8.38752C2.51684 8.13752 2.18715 7.94377 1.91215 7.81252C1.63715 7.68127 1.45903 7.60002 1.19965 7.60002C1.14653 7.60002 1.09028 7.60158 0.999654 7.63752C0.90903 7.67346 0.762154 7.78283 0.724654 7.92502C0.687154 8.06721 0.735592 8.16408 0.762154 8.22502C0.788717 8.28596 0.810592 8.32502 0.837154 8.36252C0.944967 8.50939 1.07622 8.64377 1.26215 8.83752C1.63403 9.22346 2.1934 9.81252 2.77465 10.675C3.93715 12.4016 5.19965 15.2 5.19965 19.575C5.19809 19.7188 5.27309 19.8531 5.39809 19.9266C5.52309 19.9985 5.67622 19.9985 5.80122 19.9266C5.92622 19.8531 6.00122 19.7188 5.99965 19.575C5.99965 15.0453 4.67465 12.0625 3.43715 10.225C3.08872 9.70783 2.83715 9.47033 2.53715 9.12502C3.2059 9.58596 4.01059 10.2563 4.79965 11.15C6.45122 13.0203 7.99966 15.8094 7.99966 19.575C8.00122 19.6 8.00591 19.625 8.01216 19.65C8.0184 19.6891 8.03091 19.7266 8.04965 19.7625C8.06528 19.7985 8.08715 19.8328 8.11215 19.8625C8.13091 19.8813 8.15278 19.8985 8.17465 19.9125C8.18716 19.9219 8.19966 19.9297 8.21215 19.9375C8.24809 19.9563 8.28559 19.9688 8.32466 19.975C8.37778 19.986 8.43403 19.986 8.48715 19.975C8.52778 19.9641 8.56528 19.9469 8.59966 19.925C8.60747 19.9219 8.61684 19.9172 8.62466 19.9125C8.64809 19.8938 8.66841 19.8735 8.68716 19.85C8.71684 19.825 8.74184 19.7953 8.76216 19.7625C8.7809 19.7235 8.79341 19.6813 8.79965 19.6375C8.80122 19.6172 8.80122 19.5953 8.79965 19.575C8.79965 11.7766 7.19497 7.11252 5.66215 4.38752C5.29965 3.74221 4.9434 3.21721 4.61215 2.77502C5.32934 3.37346 6.13716 4.17033 6.96215 5.33752C8.70122 7.79689 10.3731 11.636 10.7247 17.35C10.7231 17.3672 10.7231 17.3828 10.7247 17.4C10.7247 17.4047 10.7247 17.4078 10.7247 17.4125C10.7278 17.4203 10.7325 17.4297 10.7372 17.4375C10.7778 18.125 10.7997 18.8328 10.7997 19.575C10.7981 19.7188 10.8731 19.8531 10.9981 19.9266C11.1231 19.9985 11.2762 19.9985 11.4012 19.9266C11.5262 19.8531 11.6012 19.7188 11.5997 19.575C11.5997 18.811 11.5668 18.0844 11.5247 17.375C11.5278 17.35 11.5278 17.325 11.5247 17.3C11.5247 17.2953 11.5247 17.2922 11.5247 17.2875C11.6903 11.7266 13.234 8.61252 14.6247 6.87502C15.3215 6.00627 15.9825 5.47502 16.4372 5.16252C16.6637 5.00627 16.8293 4.91408 16.9497 4.83752C17.0106 4.79846 17.0418 4.83127 17.1622 4.66252C17.1918 4.62033 17.2403 4.53439 17.2372 4.40002C17.234 4.26564 17.1387 4.12658 17.0622 4.07502C16.909 3.97189 16.8559 4.00158 16.8122 4.00002C16.6012 3.99064 16.2512 4.02971 15.7122 4.18752C15.1731 4.34533 14.484 4.63127 13.7622 5.13752C12.5012 6.02033 11.1528 7.58439 10.2497 10.25C9.52466 8.01877 8.5809 6.24533 7.61215 4.87502C6.58559 3.42346 5.5309 2.42346 4.67465 1.77502C4.24653 1.45002 3.8684 1.22033 3.56215 1.06252C3.2559 0.904707 3.08247 0.800019 2.79965 0.800019C2.77153 0.800019 2.74028 0.793769 2.69965 0.800019ZM14.8247 5.50002C14.5575 5.75939 14.284 6.02033 13.9997 6.37502C12.8512 7.80783 11.6653 10.075 11.0872 13.6C10.9637 12.9188 10.8106 12.2797 10.6497 11.6625C10.6512 11.6578 10.6481 11.6547 10.6497 11.65C11.4793 8.37971 12.9403 6.68752 14.2247 5.78752C14.4497 5.62971 14.6137 5.61252 14.8247 5.50002ZM19.5997 7.60002C19.3403 7.60002 19.1637 7.69377 18.8997 7.82502C18.6356 7.95627 18.3262 8.13752 17.9747 8.38752C17.2715 8.88752 16.4106 9.63439 15.5872 10.625C13.9387 12.6078 12.3997 15.5953 12.3997 19.575C12.3981 19.7188 12.4731 19.8531 12.5981 19.9266C12.7231 19.9985 12.8762 19.9985 13.0012 19.9266C13.1262 19.8531 13.2012 19.7188 13.1997 19.575C13.1997 15.8016 14.659 13.0063 16.2122 11.1375C16.9887 10.2031 17.7903 9.50939 18.4372 9.05002C18.4465 9.04377 18.4528 9.04377 18.4622 9.03752C18.1715 9.39846 17.9137 9.66877 17.5622 10.2375C16.4293 12.0735 15.1997 15.0516 15.1997 19.575C15.1981 19.7188 15.2731 19.8531 15.3981 19.9266C15.5231 19.9985 15.6762 19.9985 15.8012 19.9266C15.9262 19.8531 16.0012 19.7188 15.9997 19.575C15.9997 15.1953 17.1715 12.3891 18.2372 10.6625C18.77 9.79846 19.2762 9.21252 19.6122 8.82502C19.7809 8.63127 19.9028 8.49689 19.9997 8.33752C20.0481 8.25783 20.1637 8.14377 20.0622 7.88752C20.0106 7.75939 19.8856 7.66877 19.7997 7.63752C19.7137 7.60627 19.6528 7.60002 19.5997 7.60002Z" fill="#030504" fill-opacity="0.8"/>
            </svg>