<svg xmlns="http://www.w3.org/2000/svg" width="20" height="16" viewBox="0 0 20 16" fill="none">
<path d="M5.16262 0.387549C5.14543 0.390674 5.12825 0.395362 5.11262 0.400049C4.92668 0.442237 4.79543 0.609424 4.80012 0.800049V15.2C4.79856 15.3438 4.87356 15.4782 4.99856 15.5516C5.12356 15.6235 5.27668 15.6235 5.40168 15.5516C5.52668 15.4782 5.60168 15.3438 5.60012 15.2V0.800049C5.60481 0.684424 5.55793 0.573487 5.47512 0.495361C5.39075 0.415674 5.27668 0.376612 5.16262 0.387549ZM14.7626 0.387549C14.7454 0.390674 14.7282 0.395362 14.7126 0.400049C14.5267 0.442237 14.3954 0.609424 14.4001 0.800049V15.2C14.3986 15.3438 14.4736 15.4782 14.5986 15.5516C14.7236 15.6235 14.8767 15.6235 15.0017 15.5516C15.1267 15.4782 15.2017 15.3438 15.2001 15.2V0.800049C15.2048 0.684424 15.1579 0.573487 15.0751 0.495361C14.9907 0.415674 14.8767 0.376612 14.7626 0.387549ZM2.76262 3.98755C2.74543 3.99067 2.72825 3.99536 2.71262 4.00005C2.52668 4.04224 2.39543 4.20942 2.40012 4.40005V11.6C2.39856 11.7438 2.47356 11.8782 2.59856 11.9516C2.72356 12.0235 2.87668 12.0235 3.00168 11.9516C3.12668 11.8782 3.20168 11.7438 3.20012 11.6V4.40005C3.20481 4.28442 3.15793 4.17349 3.07512 4.09536C2.99075 4.01567 2.87668 3.97661 2.76262 3.98755ZM17.1626 3.98755C17.1454 3.99067 17.1282 3.99536 17.1126 4.00005C16.9267 4.04224 16.7954 4.20942 16.8001 4.40005V11.6C16.7986 11.7438 16.8736 11.8782 16.9986 11.9516C17.1236 12.0235 17.2767 12.0235 17.4017 11.9516C17.5267 11.8782 17.6017 11.7438 17.6001 11.6V4.40005C17.6048 4.28442 17.5579 4.17349 17.4751 4.09536C17.3907 4.01567 17.2767 3.97661 17.1626 3.98755ZM7.56262 4.38755C7.54543 4.39067 7.52825 4.39536 7.51262 4.40005C7.32668 4.44224 7.19543 4.60942 7.20012 4.80005V8.00005V11.2C7.19856 11.3438 7.27356 11.4782 7.39856 11.5516C7.52356 11.6235 7.67668 11.6235 7.80168 11.5516C7.92668 11.4782 8.00168 11.3438 8.00012 11.2V4.80005C8.00481 4.68442 7.95793 4.57349 7.87512 4.49536C7.79075 4.41567 7.67668 4.37661 7.56262 4.38755ZM12.3626 4.38755C12.3454 4.39067 12.3282 4.39536 12.3126 4.40005C12.1267 4.44224 11.9954 4.60942 12.0001 4.80005V11.2C11.9986 11.3438 12.0736 11.4782 12.1986 11.5516C12.3236 11.6235 12.4767 11.6235 12.6017 11.5516C12.7267 11.4782 12.8017 11.3438 12.8001 11.2V4.80005C12.8048 4.68442 12.7579 4.57349 12.6751 4.49536C12.5907 4.41567 12.4767 4.37661 12.3626 4.38755ZM0.362622 6.38755C0.345434 6.39067 0.328247 6.39536 0.312622 6.40005C0.126684 6.44224 -0.00456587 6.60942 0.000121649 6.80005V9.20005C-0.00144085 9.3438 0.0735592 9.47817 0.198559 9.55161C0.323559 9.62349 0.476684 9.62349 0.601684 9.55161C0.726684 9.47817 0.801684 9.3438 0.800122 9.20005V6.80005C0.804809 6.68442 0.757934 6.57349 0.675122 6.49536C0.590747 6.41567 0.476684 6.37661 0.362622 6.38755ZM9.96262 6.38755C9.94543 6.39067 9.92825 6.39536 9.91262 6.40005C9.72668 6.44224 9.59543 6.60942 9.60012 6.80005V9.20005C9.59856 9.3438 9.67356 9.47817 9.79856 9.55161C9.92356 9.62349 10.0767 9.62349 10.2017 9.55161C10.3267 9.47817 10.4017 9.3438 10.4001 9.20005V6.80005C10.4048 6.68442 10.3579 6.57349 10.2751 6.49536C10.1907 6.41567 10.0767 6.37661 9.96262 6.38755ZM19.5626 6.38755C19.5454 6.39067 19.5282 6.39536 19.5126 6.40005C19.3267 6.44224 19.1954 6.60942 19.2001 6.80005V9.20005C19.1986 9.3438 19.2736 9.47817 19.3986 9.55161C19.5236 9.62349 19.6767 9.62349 19.8017 9.55161C19.9267 9.47817 20.0017 9.3438 20.0001 9.20005V6.80005C20.0048 6.68442 19.9579 6.57349 19.8751 6.49536C19.7907 6.41567 19.6767 6.37661 19.5626 6.38755Z" fill="#030504" fill-opacity="0.8"/>
</svg>