                            <svg xmlns="http://www.w3.org/2000/svg" width="20" height="20" viewBox="0 0 20 20" fill="none">
                              <path d="M9.99906 0.399902C5.37528 0.399902 1.59906 3.97515 1.59906 8.3999C1.54605 8.39915 1.49343 8.40895 1.44424 8.42871C1.39505 8.44848 1.35028 8.47782 1.31254 8.51504C1.27479 8.55226 1.24481 8.59661 1.22435 8.64551C1.20389 8.69441 1.19336 8.74689 1.19336 8.7999C1.19336 8.85291 1.20389 8.90539 1.22435 8.9543C1.24481 9.0032 1.27479 9.04755 1.31254 9.08477C1.35028 9.12198 1.39505 9.15133 1.44424 9.17109C1.49343 9.19086 1.54605 9.20065 1.59906 9.1999H2.39906C2.45206 9.20065 2.50469 9.19086 2.55387 9.17109C2.60306 9.15133 2.64783 9.12198 2.68558 9.08477C2.72333 9.04755 2.7533 9.0032 2.77376 8.9543C2.79422 8.90539 2.80475 8.85291 2.80475 8.7999C2.80475 8.74689 2.79422 8.69441 2.77376 8.64551C2.7533 8.59661 2.72333 8.55226 2.68558 8.51504C2.64783 8.47782 2.60306 8.44848 2.55387 8.42871C2.50469 8.40895 2.45206 8.39915 2.39906 8.3999C2.39906 8.26095 2.41274 8.12521 2.42093 7.98818C2.47673 8.00825 2.53628 8.01566 2.5953 8.00989C2.65431 8.00411 2.7113 7.98529 2.76214 7.95478C2.81298 7.92428 2.85641 7.88285 2.88928 7.8335C2.92215 7.78415 2.94363 7.72811 2.95218 7.66943C3.08435 6.92305 3.68762 5.67079 4.82952 4.64678C5.97143 3.62276 7.63909 2.7999 9.95843 2.7999C12.2778 2.7999 13.9454 3.62276 15.0873 4.64678C16.2292 5.67079 16.8325 6.92305 16.9647 7.66943C16.9743 7.7355 17.0002 7.79812 17.0402 7.85159C17.0801 7.90506 17.1329 7.94767 17.1935 7.97555C17.2542 8.00343 17.3208 8.01569 17.3874 8.01121C17.454 8.00673 17.5185 7.98565 17.5748 7.9499C17.5846 8.09947 17.5991 8.24803 17.5991 8.3999C17.5461 8.39915 17.4934 8.40895 17.4442 8.42871C17.3951 8.44848 17.3503 8.47782 17.3125 8.51504C17.2748 8.55226 17.2448 8.59661 17.2244 8.64551C17.2039 8.69441 17.1934 8.74689 17.1934 8.7999C17.1934 8.85291 17.2039 8.90539 17.2244 8.9543C17.2448 9.0032 17.2748 9.04755 17.3125 9.08477C17.3503 9.12198 17.3951 9.15133 17.4442 9.17109C17.4934 9.19086 17.5461 9.20065 17.5991 9.1999H18.3991C18.4521 9.20065 18.5047 9.19086 18.5539 9.17109C18.6031 9.15133 18.6478 9.12198 18.6856 9.08477C18.7233 9.04755 18.7533 9.0032 18.7738 8.9543C18.7942 8.90539 18.8048 8.85291 18.8048 8.7999C18.8048 8.74689 18.7942 8.69441 18.7738 8.64551C18.7533 8.59661 18.7233 8.55226 18.6856 8.51504C18.6478 8.47782 18.6031 8.44848 18.5539 8.42871C18.5047 8.40895 18.4521 8.39915 18.3991 8.3999C18.3991 3.97515 14.6228 0.399902 9.99906 0.399902ZM9.99906 1.1999C13.2576 1.1999 16.0138 3.13596 17.0991 5.84834C16.7475 5.24495 16.2586 4.62261 15.6217 4.05146C14.3479 2.90918 12.4691 1.9999 9.95843 1.9999C7.44777 1.9999 5.56894 2.90918 4.29515 4.05146C3.79393 4.50094 3.38775 4.98206 3.06468 5.46084C4.24908 2.95324 6.89748 1.1999 9.99906 1.1999ZM1.59906 9.9999V11.1218H1.62484C1.38611 11.348 1.19906 11.7199 1.19906 12.2288C1.19906 12.6388 1.31376 13.2311 1.50062 13.9608C1.68748 14.6906 1.95104 15.5341 2.2639 16.3421C2.57676 17.1501 2.93618 17.9204 3.33421 18.5147C3.73224 19.1091 4.17147 19.5999 4.79906 19.5999C5.31001 19.5999 5.67754 19.2834 5.86468 18.9585V18.9577C5.88225 18.9273 5.8905 18.9018 5.90374 18.8733C6.06853 18.924 6.25172 18.9476 6.44828 18.9476C6.68365 18.9476 6.91542 18.8809 7.09359 18.7429C7.27176 18.6048 7.38351 18.4112 7.44593 18.2132C7.57078 17.8171 7.54043 17.3775 7.45999 16.8968C7.29913 15.9353 6.89112 14.8076 6.56078 13.9335C6.22974 13.057 5.93316 12.2301 5.57796 11.5851C5.40036 11.2626 5.20855 10.9819 4.96624 10.7655C4.72394 10.5491 4.41189 10.3999 4.07093 10.3999C3.63714 10.3999 3.24635 10.5877 3.02953 10.903C3.02055 10.9161 3.01603 10.9311 3.00765 10.9444C2.85925 10.8725 2.65933 10.7999 2.39906 10.7999V9.9999H1.59906ZM17.5991 9.9999V10.7999C17.3388 10.7999 17.1389 10.8725 16.9905 10.9444C16.9821 10.9311 16.9776 10.9161 16.9686 10.903C16.7518 10.5877 16.361 10.3999 15.9272 10.3999C15.5862 10.3999 15.2742 10.5492 15.0319 10.7655C14.7896 10.9819 14.5977 11.2626 14.4202 11.5851C14.065 12.2301 13.7684 13.057 13.4373 13.9335C13.107 14.8076 12.699 15.9353 12.5381 16.8968C12.4577 17.3775 12.4273 17.8171 12.5522 18.2132C12.6146 18.4112 12.7264 18.6048 12.9045 18.7429C13.0827 18.8809 13.3145 18.9476 13.5498 18.9476C13.7461 18.9476 13.929 18.9238 14.0936 18.8733C14.1069 18.9021 14.1157 18.9277 14.1334 18.9585C14.3206 19.2834 14.6881 19.5999 15.1991 19.5999C15.8266 19.5999 16.2659 19.1091 16.6639 18.5147C17.0619 17.9204 17.4214 17.1501 17.7342 16.3421C18.0471 15.5341 18.3106 14.6906 18.4975 13.9608C18.6844 13.2311 18.7991 12.6388 18.7991 12.2288C18.7991 11.7199 18.612 11.348 18.3733 11.1218H18.3991V9.9999H17.5991ZM4.07093 11.1999C4.19417 11.1999 4.29506 11.2395 4.43265 11.3624C4.57024 11.4853 4.72498 11.6946 4.87718 11.971C5.18159 12.5238 5.47897 13.3336 5.81234 14.2163C6.13839 15.079 6.5303 16.1883 6.67093 17.0288C6.74125 17.4491 6.73656 17.8015 6.68265 17.9726C6.65569 18.0581 6.62743 18.0917 6.60374 18.1101C6.58006 18.1284 6.5473 18.1476 6.44828 18.1476C6.16154 18.1476 6.08366 18.1084 6.01078 18.0437C5.93789 17.9789 5.84083 17.8157 5.70687 17.5194C5.45163 16.9549 4.99967 15.6824 4.61859 14.6577C4.42972 14.1499 4.20674 13.5374 4.01937 13.0015C3.83211 12.4658 3.67696 11.9853 3.64046 11.8272V11.8265C3.58995 11.6062 3.62663 11.4467 3.6889 11.3562C3.75127 11.2654 3.84112 11.1999 4.07093 11.1999ZM15.9272 11.1999C16.157 11.1999 16.2468 11.2654 16.3092 11.3562C16.3716 11.4469 16.4085 11.6064 16.3577 11.8272C16.3212 11.9853 16.166 12.4658 15.9787 13.0015C15.7914 13.5374 15.5684 14.1499 15.3795 14.6577C14.9985 15.6823 14.5463 16.9545 14.2912 17.5194C14.1573 17.8157 14.0602 17.9789 13.9873 18.0437C13.9145 18.1084 13.8366 18.1476 13.5498 18.1476C13.4508 18.1476 13.4181 18.1284 13.3944 18.1101C13.3707 18.0917 13.3424 18.0581 13.3155 17.9726C13.2615 17.8015 13.2569 17.4491 13.3272 17.0288C13.4678 16.1883 13.8597 15.079 14.1858 14.2163C14.5191 13.3336 14.8165 12.5238 15.1209 11.971C15.2731 11.6946 15.4279 11.4853 15.5655 11.3624C15.7031 11.2395 15.8039 11.1999 15.9272 11.1999ZM2.39906 11.5999C2.55657 11.5999 2.61602 11.63 2.70296 11.6788C2.73409 11.6963 2.77966 11.7274 2.82484 11.7562C2.83157 11.8393 2.84163 11.9231 2.86077 12.0062C2.86077 12.0064 2.86077 12.0067 2.86077 12.0069C2.922 12.2724 3.07387 12.722 3.2639 13.2655C3.45393 13.8091 3.67826 14.4249 3.86859 14.9366C4.24591 15.9512 4.6852 17.2008 4.97796 17.8483C5.06307 18.0366 5.14392 18.2073 5.24593 18.3624C5.24212 18.3743 5.23437 18.3912 5.23109 18.4015C5.20528 18.4825 5.19023 18.5265 5.17171 18.5585C5.10839 18.6686 4.94867 18.7999 4.79906 18.7999C4.67664 18.7999 4.34087 18.581 3.99828 18.0694C3.65568 17.5579 3.30885 16.8268 3.00921 16.053C2.70958 15.2792 2.45438 14.4605 2.27562 13.7624C2.09685 13.0643 1.99906 12.4628 1.99906 12.2288C1.99906 11.8436 2.10498 11.7403 2.19203 11.6757C2.27907 11.611 2.41548 11.5999 2.39906 11.5999ZM17.5991 11.5999C17.5826 11.5999 17.719 11.611 17.8061 11.6757C17.8931 11.7403 17.9991 11.8436 17.9991 12.2288C17.9991 12.4628 17.9013 13.0643 17.7225 13.7624C17.5437 14.4605 17.2885 15.2792 16.9889 16.053C16.6893 16.8269 16.3424 17.5579 15.9998 18.0694C15.6572 18.581 15.3215 18.7999 15.1991 18.7999C15.0494 18.7999 14.8897 18.6686 14.8264 18.5585C14.8079 18.5265 14.7928 18.4825 14.767 18.4015C14.7637 18.3912 14.756 18.3743 14.7522 18.3624C14.8542 18.2073 14.935 18.0366 15.0202 17.8483C15.3123 17.2012 15.7522 15.9513 16.1295 14.9366C16.3199 14.4249 16.5442 13.8091 16.7342 13.2655C16.9242 12.722 17.0761 12.2724 17.1373 12.0069C17.1373 12.0067 17.1373 12.0064 17.1373 12.0062C17.1565 11.9231 17.1665 11.8393 17.1733 11.7562C17.2185 11.7274 17.264 11.6963 17.2952 11.6788C17.3821 11.63 17.4415 11.5999 17.5991 11.5999Z" fill="#030504" fill-opacity="0.8"/>
                            </svg>