          <svg xmlns="http://www.w3.org/2000/svg" width="20" height="24" viewBox="0 0 20 24" fill="none">
            <path d="M8.07207 0.952443C7.8077 0.958068 7.59582 1.17557 7.59957 1.43994V14.3999C7.59957 14.9999 7.6802 15.5681 7.98395 16.0349C8.2877 16.5018 8.8502 16.7999 9.51957 16.7999V20.2499C8.96457 20.4506 8.55957 20.9793 8.55957 21.5999C8.55957 22.3893 9.2102 23.0399 9.99957 23.0399C10.7889 23.0399 11.4396 22.3893 11.4396 21.5999C11.4396 20.9793 11.0346 20.4506 10.4796 20.2499V16.7999C11.0964 16.7999 11.6346 16.5018 11.9514 16.0499C12.2702 15.5962 12.3996 15.0206 12.3996 14.3999V1.43994C12.4014 1.26744 12.3114 1.10619 12.1614 1.01807C12.0114 0.931818 11.8277 0.931818 11.6777 1.01807C11.5277 1.10619 11.4377 1.26744 11.4396 1.43994V14.3999C11.4396 14.8818 11.3289 15.2662 11.1677 15.4968C11.0046 15.7293 10.8227 15.8399 10.4796 15.8399H9.51957C9.08645 15.8399 8.93082 15.7293 8.7902 15.5118C8.6477 15.2943 8.55957 14.9024 8.55957 14.3999V1.43994C8.56145 1.31057 8.51082 1.18494 8.41895 1.09307C8.32707 1.00119 8.20145 0.950568 8.07207 0.952443ZM3.0377 3.83619C2.91207 3.83807 2.79394 3.89057 2.7077 3.98057C0.27582 6.41244 0.27582 10.3724 2.7077 12.8043C2.8277 12.9299 3.0077 12.9806 3.17457 12.9374C3.34332 12.8943 3.47457 12.7612 3.5177 12.5943C3.5627 12.4256 3.51207 12.2474 3.38645 12.1274C1.3202 10.0593 1.3202 6.72557 3.38645 4.65932C3.52895 4.52057 3.5702 4.31057 3.49332 4.12869C3.41645 3.94494 3.23644 3.82869 3.0377 3.83619ZM16.9464 4.08182C16.7514 4.08182 16.5771 4.19994 16.5039 4.38182C16.4308 4.56182 16.4739 4.76994 16.6146 4.90494C18.6789 6.97119 18.6789 10.3068 16.6146 12.3731C16.4889 12.4931 16.4383 12.6731 16.4814 12.8399C16.5246 13.0087 16.6577 13.1399 16.8246 13.1831C16.9933 13.2281 17.1714 13.1774 17.2914 13.0518C19.7252 10.6181 19.7252 6.65994 17.2914 4.22619C17.2014 4.13432 17.0777 4.08182 16.9464 4.08182ZM4.3952 5.19182C4.26957 5.19557 4.15144 5.24807 4.0652 5.33807C2.38144 7.02182 2.38144 9.76494 4.0652 11.4468C4.1852 11.5724 4.3652 11.6231 4.53207 11.5799C4.70082 11.5368 4.83207 11.4037 4.8752 11.2368C4.9202 11.0681 4.86957 10.8899 4.74395 10.7699C3.4277 9.45369 3.4277 7.33307 4.74395 6.01682C4.88645 5.87807 4.9277 5.66807 4.85082 5.48619C4.77395 5.30244 4.59395 5.18619 4.3952 5.19182ZM15.5889 5.43932C15.3939 5.43932 15.2196 5.55744 15.1446 5.73932C15.0714 5.91932 15.1146 6.12744 15.2552 6.26244C16.5714 7.57869 16.5714 9.69932 15.2552 11.0156C15.1296 11.1356 15.0789 11.3156 15.1239 11.4824C15.1671 11.6512 15.2983 11.7824 15.4671 11.8256C15.6339 11.8706 15.8139 11.8199 15.9339 11.6943C17.6177 10.0106 17.6177 7.26744 15.9339 5.58557C15.8439 5.49182 15.7202 5.43932 15.5889 5.43932ZM5.7527 6.54932C5.62707 6.55307 5.50895 6.60557 5.4227 6.69557C4.48895 7.62932 4.48895 9.15744 5.4227 10.0893C5.5427 10.2149 5.7227 10.2656 5.88957 10.2224C6.05832 10.1793 6.18957 10.0462 6.2327 9.87932C6.2777 9.71057 6.22707 9.53244 6.10145 9.41244C5.5352 8.84432 5.5352 7.94057 6.10145 7.37432C6.24395 7.23557 6.2852 7.02557 6.20832 6.84369C6.13144 6.65994 5.95145 6.54369 5.7527 6.54932ZM14.2314 6.79682C14.0364 6.79869 13.8621 6.91682 13.7871 7.09682C13.7139 7.27869 13.7571 7.48494 13.8977 7.62182C14.4639 8.18807 14.4639 9.09182 13.8977 9.65807C13.7721 9.77807 13.7214 9.95807 13.7664 10.1249C13.8096 10.2937 13.9408 10.4249 14.1096 10.4681C14.2764 10.5131 14.4564 10.4624 14.5764 10.3368C15.5102 9.40307 15.5102 7.87682 14.5764 6.94307C14.4864 6.84932 14.3627 6.79869 14.2314 6.79682ZM9.99957 21.1199C10.2696 21.1199 10.4796 21.3299 10.4796 21.5999C10.4796 21.8699 10.2696 22.0799 9.99957 22.0799C9.72957 22.0799 9.51957 21.8699 9.51957 21.5999C9.51957 21.3299 9.72957 21.1199 9.99957 21.1199Z" fill="#030504"  fill-opacity="0.4"/>
          </svg>