<svg xmlns="http://www.w3.org/2000/svg" width="24" height="24" viewBox="0 0 24 24" fill="none">
<path d="M10.6584 0.959961C10.5447 0.960022 10.4346 1.00049 10.3479 1.07415C10.2612 1.14781 10.2035 1.24988 10.185 1.36215L9.71813 4.22059C9.15672 4.3839 8.6214 4.60425 8.11688 4.87871L5.75813 3.19402C5.66578 3.12808 5.55305 3.09698 5.43995 3.10625C5.32685 3.11552 5.2207 3.16455 5.14031 3.24465L3.27281 5.11027C3.19301 5.19013 3.1439 5.29557 3.13413 5.40804C3.12436 5.52052 3.15454 5.63284 3.21938 5.72527L4.87875 8.09902C4.60006 8.60649 4.37482 9.14484 4.2075 9.71152L1.36125 10.185C1.24932 10.2038 1.1477 10.2617 1.07441 10.3484C1.00113 10.4351 0.960925 10.5449 0.960938 10.6584V13.2984C0.960734 13.4112 1.00027 13.5205 1.07262 13.6071C1.14497 13.6937 1.2455 13.752 1.35656 13.7718L4.20469 14.2762C4.3711 14.8419 4.59491 15.3806 4.87406 15.8887L3.19406 18.239C3.12812 18.3314 3.09702 18.4441 3.10629 18.5572C3.11556 18.6703 3.16459 18.7765 3.24469 18.8568L5.11125 20.7243C5.19094 20.804 5.29613 20.8532 5.4084 20.8631C5.52067 20.8731 5.63286 20.8432 5.72531 20.7787L8.10375 19.1137C8.60976 19.3898 9.1464 19.6118 9.70969 19.7765L10.185 22.6387C10.2037 22.7508 10.2615 22.8527 10.3482 22.9261C10.4349 22.9996 10.5448 23.0399 10.6584 23.04H13.2984C13.4114 23.0401 13.5208 23.0005 13.6074 22.9279C13.694 22.8554 13.7522 22.7546 13.7719 22.6434L14.2809 19.77C14.8419 19.6027 15.376 19.3774 15.8794 19.0996L18.2738 20.7796C18.3662 20.8445 18.4785 20.8747 18.591 20.8649C18.7035 20.8551 18.8089 20.806 18.8888 20.7262L20.7553 18.8578C20.8358 18.7772 20.8849 18.6706 20.894 18.5571C20.9031 18.4435 20.8716 18.3305 20.805 18.2381L19.0978 15.8681C19.3708 15.3671 19.5907 14.8362 19.7541 14.279L22.6425 13.7728C22.7537 13.7531 22.8545 13.6949 22.927 13.6083C22.9996 13.5217 23.0392 13.4123 23.0391 13.2993V10.6593C23.039 10.5456 22.9985 10.4355 22.9249 10.3488C22.8512 10.2621 22.7491 10.2044 22.6369 10.1859L19.7531 9.71434C19.5886 9.1578 19.3681 8.62783 19.095 8.12715L20.7787 5.72809C20.8436 5.63566 20.8738 5.52333 20.864 5.41086C20.8542 5.29838 20.8051 5.19295 20.7253 5.11309L18.8578 3.24652C18.7772 3.16608 18.6706 3.11692 18.5571 3.10782C18.4436 3.09872 18.3305 3.13027 18.2381 3.19684L15.8747 4.89652C15.3711 4.61987 14.8367 4.3958 14.2744 4.22996L13.7719 1.35746C13.7524 1.24605 13.6943 1.14508 13.6077 1.07236C13.521 0.99964 13.4115 0.959834 13.2984 0.959961H10.6584ZM11.0672 1.91996H12.8953L13.3734 4.64902C13.3893 4.74055 13.4315 4.8255 13.4947 4.89356C13.5579 4.96163 13.6396 5.00988 13.7297 5.03246C14.4317 5.2074 15.091 5.4847 15.6928 5.84902C15.7733 5.89777 15.8663 5.92181 15.9603 5.91814C16.0543 5.91448 16.1451 5.88327 16.2216 5.8284L18.4678 4.21402L19.7606 5.50684L18.1612 7.7859C18.1078 7.86193 18.0776 7.95182 18.0743 8.04468C18.071 8.13754 18.0947 8.22937 18.1425 8.30902C18.5032 8.90947 18.7768 9.56462 18.9516 10.2628C18.9743 10.3537 19.0232 10.436 19.0922 10.4995C19.1611 10.5629 19.2472 10.6048 19.3397 10.62L22.0791 11.0681V12.8962L19.3341 13.3781C19.2425 13.3943 19.1575 13.4368 19.0896 13.5004C19.0217 13.5639 18.9738 13.6459 18.9516 13.7362C18.7788 14.4335 18.5051 15.0886 18.1444 15.689C18.096 15.7695 18.0722 15.8623 18.076 15.9562C18.0799 16.05 18.1111 16.1406 18.1659 16.2168L19.7878 18.4678L18.495 19.7615L16.2197 18.165C16.1433 18.1114 16.0529 18.0813 15.9597 18.0783C15.8665 18.0754 15.7744 18.0996 15.6947 18.1481C15.0959 18.5124 14.4359 18.791 13.7363 18.9684C13.6466 18.991 13.5653 19.039 13.5023 19.1067C13.4392 19.1744 13.3971 19.2589 13.3809 19.35L12.8963 22.08H11.0653L10.6134 19.3621C10.5981 19.2697 10.556 19.1838 10.4923 19.115C10.4287 19.0462 10.3463 18.9975 10.2553 18.975C9.55289 18.8018 8.89061 18.5249 8.28469 18.1612C8.20514 18.1136 8.11349 18.09 8.02082 18.0933C7.92815 18.0966 7.83843 18.1267 7.7625 18.18L5.505 19.7615L4.21125 18.4659L5.80688 16.2356C5.86141 16.1592 5.89234 16.0684 5.89584 15.9746C5.89933 15.8808 5.87525 15.788 5.82656 15.7078C5.45887 15.1002 5.18079 14.438 5.00531 13.7325C4.98286 13.6426 4.93489 13.5611 4.86719 13.4979C4.79949 13.4347 4.71494 13.3925 4.62375 13.3762L1.92094 12.8962V11.0653L4.62188 10.6162C4.71421 10.6009 4.80005 10.5589 4.86884 10.4955C4.93763 10.432 4.98637 10.3498 5.00906 10.259C5.18605 9.55107 5.464 8.88895 5.83031 8.28277C5.87862 8.20319 5.90274 8.11128 5.89975 8.01823C5.89675 7.92519 5.86676 7.83502 5.81344 7.75871L4.23656 5.50496L5.53125 4.21121L7.76906 5.81059C7.84519 5.86487 7.93552 5.89574 8.02895 5.89941C8.12238 5.90307 8.21485 5.87937 8.295 5.83121C8.89772 5.46922 9.56154 5.19456 10.2647 5.02215C10.3561 4.99965 10.4389 4.95077 10.5027 4.88159C10.5665 4.81242 10.6086 4.726 10.6238 4.63309L11.0672 1.91996ZM12 8.15996C9.88491 8.15996 8.16 9.88487 8.16 12C8.16 14.115 9.88491 15.84 12 15.84C14.1151 15.84 15.84 14.115 15.84 12C15.84 9.88487 14.1151 8.15996 12 8.15996ZM12 9.11996C13.5963 9.11996 14.88 10.4037 14.88 12C14.88 13.5962 13.5963 14.88 12 14.88C10.4037 14.88 9.12 13.5962 9.12 12C9.12 10.4037 10.4037 9.11996 12 9.11996Z" fill="#030504" fill-opacity="0.4"/>
</svg>